<?xml version="1.0" encoding="UTF-8" standalone="no"?><svg xmlns="http://www.w3.org/2000/svg" xmlns:xlink="http://www.w3.org/1999/xlink" contentScriptType="application/ecmascript" contentStyleType="text/css" height="1046px" preserveAspectRatio="none" style="width:1127px;height:1046px;background:#FFFFFF;" version="1.1" viewBox="0 0 1127 1046" width="1127px" zoomAndPan="magnify"><defs><filter height="300%" id="fsa1c4ybzzoe0" width="300%" x="-1" y="-1"><feGaussianBlur result="blurOut" stdDeviation="2.0"/><feColorMatrix in="blurOut" result="blurOut2" type="matrix" values="0 0 0 0 0 0 0 0 0 0 0 0 0 0 0 0 0 0 .4 0"/><feOffset dx="4.0" dy="4.0" in="blurOut2" result="blurOut3"/><feBlend in="SourceGraphic" in2="blurOut3" mode="normal"/></filter></defs><g><!--MD5=[755bfa3dd29571ae64598e3c7698531d]
cluster VPN--><polygon fill="#FFA1F8" filter="url(#fsa1c4ybzzoe0)" points="16,16,26,6,1110,6,1110,608,1100,618,16,618,16,16" style="stroke:#000000;stroke-width:1.5;"/><line style="stroke:#000000;stroke-width:1.5;" x1="1100" x2="1110" y1="16" y2="6"/><line style="stroke:#000000;stroke-width:1.5;" x1="16" x2="1100" y1="16" y2="16"/><line style="stroke:#000000;stroke-width:1.5;" x1="1100" x2="1100" y1="16" y2="618"/><text fill="#000000" font-family="sans-serif" font-size="17" font-weight="bold" lengthAdjust="spacing" textLength="35" x="541.5" y="35.4355">VPN</text><!--MD5=[693167bafc98937ea57d8098595f952f]
cluster Front--><polygon fill="#FFA1F8" filter="url(#fsa1c4ybzzoe0)" points="360,823,370,813,582,813,582,897,572,907,360,907,360,823" style="stroke:#000000;stroke-width:1.5;"/><line style="stroke:#000000;stroke-width:1.5;" x1="572" x2="582" y1="823" y2="813"/><line style="stroke:#000000;stroke-width:1.5;" x1="360" x2="572" y1="823" y2="823"/><line style="stroke:#000000;stroke-width:1.5;" x1="572" x2="572" y1="823" y2="907"/><text fill="#000000" font-family="sans-serif" font-size="17" font-weight="bold" lengthAdjust="spacing" textLength="47" x="443.5" y="842.4355">Front</text><!--MD5=[783dc9e3eeef317a9da1c323dfb778fc]
entity Elasticsearch--><path d="M670,68 C670,58 733,58 733,58 C733,58 796,58 796,68 L796,97.0215 C796,107.0215 733,107.0215 733,107.0215 C733,107.0215 670,107.0215 670,97.0215 L670,68 " fill="#6A9E82" filter="url(#fsa1c4ybzzoe0)" style="stroke:#000000;stroke-width:1.5;"/><path d="M670,68 C670,78 733,78 733,78 C733,78 796,78 796,68 " fill="none" style="stroke:#000000;stroke-width:1.5;"/><text fill="#000000" font-family="sans-serif" font-size="17" lengthAdjust="spacing" textLength="106" x="680" y="98.4355">Elasticsearch</text><!--MD5=[8e41bcf8bcfea632130e5450c74a85e7]
entity Vendor_DB--><path d="M156.5,68 C156.5,58 212,58 212,58 C212,58 267.5,58 267.5,68 L267.5,97.0215 C267.5,107.0215 212,107.0215 212,107.0215 C212,107.0215 156.5,107.0215 156.5,97.0215 L156.5,68 " fill="#6A9E82" filter="url(#fsa1c4ybzzoe0)" style="stroke:#000000;stroke-width:1.5;"/><path d="M156.5,68 C156.5,78 212,78 212,78 C212,78 267.5,78 267.5,68 " fill="none" style="stroke:#000000;stroke-width:1.5;"/><text fill="#000000" font-family="sans-serif" font-size="17" lengthAdjust="spacing" textLength="91" x="166.5" y="98.4355">Vendor_DB</text><!--MD5=[44063067b96b1b27fd0c0cf4b92abe4c]
entity User_info_DB--><path d="M808,311.5 C808,301.5 873,301.5 873,301.5 C873,301.5 938,301.5 938,311.5 L938,340.5215 C938,350.5215 873,350.5215 873,350.5215 C873,350.5215 808,350.5215 808,340.5215 L808,311.5 " fill="#6A9E82" filter="url(#fsa1c4ybzzoe0)" style="stroke:#000000;stroke-width:1.5;"/><path d="M808,311.5 C808,321.5 873,321.5 873,321.5 C873,321.5 938,321.5 938,311.5 " fill="none" style="stroke:#000000;stroke-width:1.5;"/><text fill="#000000" font-family="sans-serif" font-size="17" lengthAdjust="spacing" textLength="110" x="818" y="341.9355">User_info_DB</text><!--MD5=[f96d690baea4a0823d36c98ba0c3a2b4]
entity Redis--><path d="M700.5,425.5 C700.5,415.5 733,415.5 733,415.5 C733,415.5 765.5,415.5 765.5,425.5 L765.5,454.5215 C765.5,464.5215 733,464.5215 733,464.5215 C733,464.5215 700.5,464.5215 700.5,454.5215 L700.5,425.5 " fill="#6A9E82" filter="url(#fsa1c4ybzzoe0)" style="stroke:#000000;stroke-width:1.5;"/><path d="M700.5,425.5 C700.5,435.5 733,435.5 733,435.5 C733,435.5 765.5,435.5 765.5,425.5 " fill="none" style="stroke:#000000;stroke-width:1.5;"/><text fill="#000000" font-family="sans-serif" font-size="17" lengthAdjust="spacing" textLength="45" x="710.5" y="455.9355">Redis</text><!--MD5=[07c60c103691430df8c2886af2ad29eb]
entity Logstash--><rect fill="#6A9EFF" filter="url(#fsa1c4ybzzoe0)" height="50.0215" style="stroke:#000000;stroke-width:1.5;" width="114" x="676" y="187"/><rect fill="#6A9EFF" height="10" style="stroke:#000000;stroke-width:1.5;" width="15" x="770" y="192"/><rect fill="#6A9EFF" height="2" style="stroke:#000000;stroke-width:1.5;" width="4" x="768" y="194"/><rect fill="#6A9EFF" height="2" style="stroke:#000000;stroke-width:1.5;" width="4" x="768" y="198"/><text fill="#000000" font-family="sans-serif" font-size="17" lengthAdjust="spacing" textLength="74" x="691" y="223.4355">Logstash</text><!--MD5=[9b8f59e66ae7ec468b34308e0cee7a31]
entity Kibana--><rect fill="#6A9EFF" filter="url(#fsa1c4ybzzoe0)" height="50.0215" style="stroke:#000000;stroke-width:1.5;" width="96" x="831" y="57.5"/><rect fill="#6A9EFF" height="10" style="stroke:#000000;stroke-width:1.5;" width="15" x="907" y="62.5"/><rect fill="#6A9EFF" height="2" style="stroke:#000000;stroke-width:1.5;" width="4" x="905" y="64.5"/><rect fill="#6A9EFF" height="2" style="stroke:#000000;stroke-width:1.5;" width="4" x="905" y="68.5"/><text fill="#000000" font-family="sans-serif" font-size="17" lengthAdjust="spacing" textLength="56" x="846" y="93.9355">Kibana</text><!--MD5=[e290ce1d73df4ab7e7b343154c9678f9]
entity Admin_panel--><rect fill="#6A9EFF" filter="url(#fsa1c4ybzzoe0)" height="50.0215" style="stroke:#000000;stroke-width:1.5;" width="149" x="24.5" y="301"/><rect fill="#6A9EFF" height="10" style="stroke:#000000;stroke-width:1.5;" width="15" x="153.5" y="306"/><rect fill="#6A9EFF" height="2" style="stroke:#000000;stroke-width:1.5;" width="4" x="151.5" y="308"/><rect fill="#6A9EFF" height="2" style="stroke:#000000;stroke-width:1.5;" width="4" x="151.5" y="312"/><text fill="#000000" font-family="sans-serif" font-size="17" lengthAdjust="spacing" textLength="109" x="39.5" y="337.4355">Admin_panel</text><!--MD5=[784d1d874387c9b10bfcbe9124f885e5]
entity Vendor_DB_API_Service--><rect fill="#6A9EFF" filter="url(#fsa1c4ybzzoe0)" height="50.0215" style="stroke:#000000;stroke-width:1.5;" width="232" x="209" y="301"/><rect fill="#6A9EFF" height="10" style="stroke:#000000;stroke-width:1.5;" width="15" x="421" y="306"/><rect fill="#6A9EFF" height="2" style="stroke:#000000;stroke-width:1.5;" width="4" x="419" y="308"/><rect fill="#6A9EFF" height="2" style="stroke:#000000;stroke-width:1.5;" width="4" x="419" y="312"/><text fill="#000000" font-family="sans-serif" font-size="17" lengthAdjust="spacing" textLength="192" x="224" y="337.4355">Vendor_DB_API_Service</text><!--MD5=[6ac8b63fdd46cc8523881e6d2365f52a]
entity CV_HTTP_service--><rect fill="#6A9EFF" filter="url(#fsa1c4ybzzoe0)" height="50.0215" style="stroke:#000000;stroke-width:1.5;" width="181" x="476.5" y="301"/><rect fill="#6A9EFF" height="10" style="stroke:#000000;stroke-width:1.5;" width="15" x="637.5" y="306"/><rect fill="#6A9EFF" height="2" style="stroke:#000000;stroke-width:1.5;" width="4" x="635.5" y="308"/><rect fill="#6A9EFF" height="2" style="stroke:#000000;stroke-width:1.5;" width="4" x="635.5" y="312"/><text fill="#000000" font-family="sans-serif" font-size="17" lengthAdjust="spacing" textLength="141" x="491.5" y="337.4355">CV_HTTP_service</text><!--MD5=[b7709df717efd9e6df0e9843c5de81db]
entity Nginx--><rect fill="#6A9EFF" filter="url(#fsa1c4ybzzoe0)" height="50.0215" style="stroke:#000000;stroke-width:1.5;" width="90" x="431" y="544.5"/><rect fill="#6A9EFF" height="10" style="stroke:#000000;stroke-width:1.5;" width="15" x="501" y="549.5"/><rect fill="#6A9EFF" height="2" style="stroke:#000000;stroke-width:1.5;" width="4" x="499" y="551.5"/><rect fill="#6A9EFF" height="2" style="stroke:#000000;stroke-width:1.5;" width="4" x="499" y="555.5"/><text fill="#000000" font-family="sans-serif" font-size="17" lengthAdjust="spacing" textLength="50" x="446" y="580.9355">Nginx</text><!--MD5=[39222abbbfd087a4fdab60e627dc976f]
entity Auth--><rect fill="#6A9EFF" filter="url(#fsa1c4ybzzoe0)" height="50.0215" style="stroke:#000000;stroke-width:1.5;" width="80" x="693" y="301"/><rect fill="#6A9EFF" height="10" style="stroke:#000000;stroke-width:1.5;" width="15" x="753" y="306"/><rect fill="#6A9EFF" height="2" style="stroke:#000000;stroke-width:1.5;" width="4" x="751" y="308"/><rect fill="#6A9EFF" height="2" style="stroke:#000000;stroke-width:1.5;" width="4" x="751" y="312"/><text fill="#000000" font-family="sans-serif" font-size="17" lengthAdjust="spacing" textLength="40" x="708" y="337.4355">Auth</text><!--MD5=[8a394f96b0ce110dbdfdee486f17d343]
entity Billing--><rect fill="#6A9EFF" filter="url(#fsa1c4ybzzoe0)" height="50.0215" style="stroke:#000000;stroke-width:1.5;" width="92" x="1010" y="301"/><rect fill="#6A9EFF" height="10" style="stroke:#000000;stroke-width:1.5;" width="15" x="1082" y="306"/><rect fill="#6A9EFF" height="2" style="stroke:#000000;stroke-width:1.5;" width="4" x="1080" y="308"/><rect fill="#6A9EFF" height="2" style="stroke:#000000;stroke-width:1.5;" width="4" x="1080" y="312"/><text fill="#000000" font-family="sans-serif" font-size="17" lengthAdjust="spacing" textLength="52" x="1025" y="337.4355">Billing</text><!--MD5=[ff8ff1b9124d8226c243bd0d10adfb7e]
entity CRM--><rect fill="#6A9EFF" filter="url(#fsa1c4ybzzoe0)" height="50.0215" style="stroke:#000000;stroke-width:1.5;" width="78" x="884" y="415"/><rect fill="#6A9EFF" height="10" style="stroke:#000000;stroke-width:1.5;" width="15" x="942" y="420"/><rect fill="#6A9EFF" height="2" style="stroke:#000000;stroke-width:1.5;" width="4" x="940" y="422"/><rect fill="#6A9EFF" height="2" style="stroke:#000000;stroke-width:1.5;" width="4" x="940" y="426"/><text fill="#000000" font-family="sans-serif" font-size="17" lengthAdjust="spacing" textLength="38" x="899" y="451.4355">CRM</text><!--MD5=[899629aacf9ceed11a0fc7b2ab0e7e58]
entity port_8000--><ellipse cx="99" cy="440" fill="#FEFECE" filter="url(#fsa1c4ybzzoe0)" rx="8" ry="8" style="stroke:#A80036;stroke-width:1.5;"/><text fill="#000000" font-family="sans-serif" font-size="14" lengthAdjust="spacing" textLength="72" x="63" y="470.5352">port_8000</text><!--MD5=[3ea2b7d603bd1cdafc433bcd0b4ea9aa]
entity port_8001--><ellipse cx="355" cy="440" fill="#FEFECE" filter="url(#fsa1c4ybzzoe0)" rx="8" ry="8" style="stroke:#A80036;stroke-width:1.5;"/><text fill="#000000" font-family="sans-serif" font-size="14" lengthAdjust="spacing" textLength="72" x="319" y="470.5352">port_8001</text><!--MD5=[9d60b2aa657131cc4464b2d11504becd]
entity port_8002--><ellipse cx="508" cy="440" fill="#FEFECE" filter="url(#fsa1c4ybzzoe0)" rx="8" ry="8" style="stroke:#A80036;stroke-width:1.5;"/><text fill="#000000" font-family="sans-serif" font-size="14" lengthAdjust="spacing" textLength="72" x="472" y="470.5352">port_8002</text><!--MD5=[c6773d1dedc36e8d13b0095e7d917e9a]
entity port_5432--><ellipse cx="212" cy="212" fill="#FEFECE" filter="url(#fsa1c4ybzzoe0)" rx="8" ry="8" style="stroke:#A80036;stroke-width:1.5;"/><text fill="#000000" font-family="sans-serif" font-size="14" lengthAdjust="spacing" textLength="72" x="176" y="242.5352">port_5432</text><!--MD5=[b5bc67689494d1e06a43d3b0ef27a622]
entity port_5601--><ellipse cx="971" cy="82.5" fill="#FEFECE" filter="url(#fsa1c4ybzzoe0)" rx="8" ry="8" style="stroke:#A80036;stroke-width:1.5;"/><text fill="#000000" font-family="sans-serif" font-size="14" lengthAdjust="spacing" textLength="72" x="935" y="113.0352">port_5601</text><!--MD5=[327d8b0cc9017ef0d2f4054fa6547e20]
entity Manager--><ellipse cx="99" cy="538.5" fill="#6A44FF" filter="url(#fsa1c4ybzzoe0)" rx="8" ry="8" style="stroke:#000000;stroke-width:1.5;"/><path d="M99,546.5 L99,573.5 M86,554.5 L112,554.5 M99,573.5 L86,588.5 M99,573.5 L112,588.5 " fill="none" filter="url(#fsa1c4ybzzoe0)" style="stroke:#000000;stroke-width:1.5;"/><text fill="#000000" font-family="sans-serif" font-size="14" lengthAdjust="spacing" textLength="60" x="69" y="607.5352">Manager</text><!--MD5=[9d1330f94e15b99f5c39504305aed57e]
entity DevOps--><ellipse cx="1041" cy="51.5" fill="#6A44FF" filter="url(#fsa1c4ybzzoe0)" rx="8" ry="8" style="stroke:#000000;stroke-width:1.5;"/><path d="M1041,59.5 L1041,86.5 M1028,67.5 L1054,67.5 M1041,86.5 L1028,101.5 M1041,86.5 L1054,101.5 " fill="none" filter="url(#fsa1c4ybzzoe0)" style="stroke:#000000;stroke-width:1.5;"/><text fill="#000000" font-family="sans-serif" font-size="14" lengthAdjust="spacing" textLength="52" x="1015" y="120.5352">DevOps</text><!--MD5=[3193059314a247eafe92785e7a6ac74f]
entity Web--><rect fill="#6A9EFF" filter="url(#fsa1c4ybzzoe0)" height="50.0215" style="stroke:#000000;stroke-width:1.5;" width="75" x="498.5" y="849"/><rect fill="#6A9EFF" height="10" style="stroke:#000000;stroke-width:1.5;" width="15" x="553.5" y="854"/><rect fill="#6A9EFF" height="2" style="stroke:#000000;stroke-width:1.5;" width="4" x="551.5" y="856"/><rect fill="#6A9EFF" height="2" style="stroke:#000000;stroke-width:1.5;" width="4" x="551.5" y="860"/><text fill="#000000" font-family="sans-serif" font-size="17" lengthAdjust="spacing" textLength="35" x="513.5" y="885.4355">Web</text><!--MD5=[196d6eeb2242891742fda3f334b4ab6e]
entity Mobile--><rect fill="#6A9EFF" filter="url(#fsa1c4ybzzoe0)" height="50.0215" style="stroke:#000000;stroke-width:1.5;" width="95" x="368.5" y="849"/><rect fill="#6A9EFF" height="10" style="stroke:#000000;stroke-width:1.5;" width="15" x="443.5" y="854"/><rect fill="#6A9EFF" height="2" style="stroke:#000000;stroke-width:1.5;" width="4" x="441.5" y="856"/><rect fill="#6A9EFF" height="2" style="stroke:#000000;stroke-width:1.5;" width="4" x="441.5" y="860"/><text fill="#000000" font-family="sans-serif" font-size="17" lengthAdjust="spacing" textLength="55" x="383.5" y="885.4355">Mobile</text><!--MD5=[21a53ea847074d58f6a7c93457b0a8b1]
entity port_80--><ellipse cx="476" cy="760" fill="#FEFECE" filter="url(#fsa1c4ybzzoe0)" rx="8" ry="8" style="stroke:#A80036;stroke-width:1.5;"/><text fill="#000000" font-family="sans-serif" font-size="14" lengthAdjust="spacing" textLength="54" x="449" y="790.5352">port_80</text><!--MD5=[261b70d766cf3b488716fdc7774eedb5]
entity Client1--><ellipse cx="536" cy="968.5" fill="#6A44FF" filter="url(#fsa1c4ybzzoe0)" rx="8" ry="8" style="stroke:#000000;stroke-width:1.5;"/><path d="M536,976.5 L536,1003.5 M523,984.5 L549,984.5 M536,1003.5 L523,1018.5 M536,1003.5 L549,1018.5 " fill="none" filter="url(#fsa1c4ybzzoe0)" style="stroke:#000000;stroke-width:1.5;"/><text fill="#000000" font-family="sans-serif" font-size="14" lengthAdjust="spacing" textLength="49" x="511.5" y="1037.5352">Client1</text><!--MD5=[87b5331bd98359a6a5d777d873059d3a]
entity Client2--><ellipse cx="416" cy="968.5" fill="#6A44FF" filter="url(#fsa1c4ybzzoe0)" rx="8" ry="8" style="stroke:#000000;stroke-width:1.5;"/><path d="M416,976.5 L416,1003.5 M403,984.5 L429,984.5 M416,1003.5 L403,1018.5 M416,1003.5 L429,1018.5 " fill="none" filter="url(#fsa1c4ybzzoe0)" style="stroke:#000000;stroke-width:1.5;"/><text fill="#000000" font-family="sans-serif" font-size="14" lengthAdjust="spacing" textLength="49" x="391.5" y="1037.5352">Client2</text><!--MD5=[2fb5bca7c7e3ee872008ce8a9704d963]
link port_5432 to Admin_panel--><path d="M202.7527,221.3291 C185.6746,238.5584 148.663,275.8975 123.7852,300.9954 " fill="none" id="port_5432-Admin_panel" style="stroke:#222266;stroke-width:1.0;"/><!--MD5=[98f343313013d9f46c43147ab1a3ea1f]
link Admin_panel to port_8000--><path d="M99,351.0178 C99,376.1861 99,413.6544 99,430.8156 " fill="none" id="Admin_panel-port_8000" style="stroke:#222266;stroke-width:1.0;"/><!--MD5=[9d187edd6cb49dd7c2a67b04b3f30e40]
link port_5432 to Vendor_DB_API_Service--><path d="M221.2473,221.3291 C238.3254,238.5584 275.337,275.8975 300.2148,300.9954 " fill="none" id="port_5432-Vendor_DB_API_Service" style="stroke:#222266;stroke-width:1.0;"/><!--MD5=[7e69f2cf28dab5c77e00e4edb9e07d15]
reverse link Logstash to Vendor_DB_API_Service--><path d="M671.0001,229.3235 C602.759,248.3909 492.4512,279.2122 414.7631,300.9191 " fill="none" id="Logstash-backto-Vendor_DB_API_Service" style="stroke:#222266;stroke-width:1.0;"/><polygon fill="#222266" points="675.8397,227.9712,666.0953,226.5408,671.0242,229.3168,668.2482,234.2456,675.8397,227.9712" style="stroke:#222266;stroke-width:1.0;"/><!--MD5=[4e0b5d07b3f98deaf652158ce2271953]
link Vendor_DB_API_Service to port_8001--><path d="M331.5836,351.0178 C338.2069,376.1861 348.067,413.6544 352.5831,430.8156 " fill="none" id="Vendor_DB_API_Service-port_8001" style="stroke:#222266;stroke-width:1.0;"/><!--MD5=[07e110991f3f517b8ea1ff33794cbe86]
link port_8001 to Nginx--><path d="M363.702,449.3133 C382.0717,468.9735 425.3461,515.2878 452.4928,544.3415 " fill="none" id="port_8001-Nginx" style="stroke:#222266;stroke-width:1.0;"/><!--MD5=[3ffb6051d950ac9a194479cfe40e92fb]
link CV_HTTP_service to Auth--><path d="M657.7813,326 C669.4362,326 681.0912,326 692.7462,326 " fill="none" id="CV_HTTP_service-Auth" style="stroke:#222266;stroke-width:1.0;"/><!--MD5=[21ed59b675d1ed7502165ed993726121]
reverse link Logstash to CV_HTTP_service--><path d="M692.2928,239.9555 C665.1831,258.573 629.8589,282.8318 603.6309,300.8438 " fill="none" id="Logstash-backto-CV_HTTP_service" style="stroke:#222266;stroke-width:1.0;"/><polygon fill="#222266" points="696.5706,237.0178,686.8872,238.8156,692.449,239.8484,691.4162,245.4102,696.5706,237.0178" style="stroke:#222266;stroke-width:1.0;"/><!--MD5=[3f800fb62523772baa03f8a49b12a85c]
link CV_HTTP_service to port_8002--><path d="M554.0522,351.0178 C541.0265,376.1861 521.635,413.6544 512.7533,430.8156 " fill="none" id="CV_HTTP_service-port_8002" style="stroke:#222266;stroke-width:1.0;"/><!--MD5=[2a67d4bd91ef3d11dbe9ec604495b284]
link port_8002 to Nginx--><path d="M505.6986,449.3133 C500.8405,468.9735 489.3961,515.2878 482.2168,544.3415 " fill="none" id="port_8002-Nginx" style="stroke:#222266;stroke-width:1.0;"/><!--MD5=[693526a33afe6c29205523196d598d5c]
link Auth to User_info_DB--><path d="M773.1953,326 C784.7612,326 796.3271,326 807.893,326 " fill="none" id="Auth-User_info_DB" style="stroke:#222266;stroke-width:1.0;"/><!--MD5=[8db03ac3b0c79874ee0e9b2ed6fd36f2]
link Auth to Redis--><path d="M733,351.0178 C733,370.1562 733,396.4069 733,415.4325 " fill="none" id="Auth-Redis" style="stroke:#222266;stroke-width:1.0;"/><!--MD5=[79f9f445c077c726acdab8b52293068c]
link Auth to Billing--><path d="M758.9592,300.738 C772.546,289.2795 790.1502,276.975 808.5,271 C874.849,249.3955 898.3072,252.1835 965.5,271 C986.7456,276.9496 1007.9587,289.4064 1024.5016,300.9626 " fill="none" id="Auth-Billing" style="stroke:#222266;stroke-width:1.0;"/><!--MD5=[e9602ef00eae6a101280b2c6b40afd5e]
link Auth to CRM--><path d="M773.2941,350.1765 C805.8645,369.7187 851.4491,397.0695 883.7399,416.444 " fill="none" id="Auth-CRM" style="stroke:#222266;stroke-width:1.0;"/><!--MD5=[e5875bc8b87665b36a7c235aa63c51f2]
reverse link Logstash to Auth--><path d="M733,242.0289 C733,260.277 733,283.3182 733,300.6466 " fill="none" id="Logstash-backto-Auth" style="stroke:#222266;stroke-width:1.0;"/><polygon fill="#222266" points="733,237.0178,729,246.0178,733,242.0178,737,246.0178,733,237.0178" style="stroke:#222266;stroke-width:1.0;"/><!--MD5=[2b61bfd679c1036ea4dbd3fb1f1e3071]
link User_info_DB to Billing--><path d="M938.0508,326 C962.0092,326 985.9677,326 1009.9261,326 " fill="none" id="User_info_DB-Billing" style="stroke:#222266;stroke-width:1.0;"/><!--MD5=[658600c7fa525a5ce1d16c8c6b63a709]
reverse link Logstash to Billing--><path d="M794.8383,233.8253 C857.5883,255.9723 953.295,289.7512 1009.7575,309.6791 " fill="none" id="Logstash-backto-Billing" style="stroke:#222266;stroke-width:1.0;"/><polygon fill="#222266" points="790.0024,232.1185,797.158,238.8859,794.7173,233.7826,799.8206,231.342,790.0024,232.1185" style="stroke:#222266;stroke-width:1.0;"/><!--MD5=[9458302ac69243df70cc0c9cf02ee230]
link CRM to User_info_DB--><path d="M911.9993,414.9183 C903.6324,395.842 892.1785,369.7269 883.8493,350.7363 " fill="none" id="CRM-User_info_DB" style="stroke:#222266;stroke-width:1.0;"/><!--MD5=[718bddeb4b5cd917d702321a46d50c2e]
link Billing to CRM--><path d="M1026.8126,351.0178 C1004.7903,369.894 974.6961,395.689 952.5789,414.6466 " fill="none" id="Billing-CRM" style="stroke:#222266;stroke-width:1.0;"/><!--MD5=[7fb01d8ef70f40e35e39d5053a74a9e7]
reverse link Logstash to CRM--><path d="M795.0607,218.0184 C847.7281,226.7741 920.266,248.2636 956,301 C979.5131,335.7006 957.5999,385.1627 939.9902,414.7737 " fill="none" id="Logstash-backto-CRM" style="stroke:#222266;stroke-width:1.0;"/><polygon fill="#222266" points="790.0278,217.2102,798.2796,222.5867,794.9645,218.0031,799.5482,214.688,790.0278,217.2102" style="stroke:#222266;stroke-width:1.0;"/><!--MD5=[34db760bba75f7e7205ad60cb2186abd]
reverse link Elasticsearch to Logstash--><path d="M733,112.434 C733,135.0341 733,165.688 733,186.9879 " fill="none" id="Elasticsearch-backto-Logstash" style="stroke:#222266;stroke-width:1.0;"/><polygon fill="#222266" points="733,107.1628,729,116.1628,733,112.1628,737,116.1628,733,107.1628" style="stroke:#222266;stroke-width:1.0;"/><!--MD5=[048503d3e4d7a2e2168c3c1996ed2c8e]
link Elasticsearch to Kibana--><path d="M796.0195,82.5 C807.5806,82.5 819.1417,82.5 830.7028,82.5 " fill="none" id="Elasticsearch-Kibana" style="stroke:#222266;stroke-width:1.0;"/><!--MD5=[fee6d574a89dbefe632f1ff867089a2a]
link Kibana to port_5601--><path d="M927.1563,82.5 C938.6881,82.5 950.2199,82.5 961.7517,82.5 " fill="none" id="Kibana-port_5601" style="stroke:#222266;stroke-width:1.0;"/><!--MD5=[f660784e32dbfa90a6dd3a8893df11cf]
link port_5601 to DevOps--><path d="M980.0234,82.5 C991.6153,82.5 1003.2072,82.5 1014.7991,82.5 " fill="none" id="port_5601-DevOps" style="stroke:#222266;stroke-width:1.0;"/><!--MD5=[7f27d2f623760fe5436bce29e1954d0f]
link port_8000 to Manager--><path d="M99,449.3133 C99,465.7258 99,500.7136 99,528.7281 " fill="none" id="port_8000-Manager" style="stroke:#222266;stroke-width:1.0;"/><!--MD5=[de550f772c07af88d63e922042a7f6c9]
link Vendor_DB to port_5432--><path d="M212,107.1628 C212,136.2233 212,183.0451 212,202.7694 " fill="none" id="Vendor_DB-port_5432" style="stroke:#222266;stroke-width:1.0;"/><!--MD5=[03158dc547cdf27cf6a469d333fc5d4c]
link Nginx to port_80--><path d="M476,594.7969 C476,637.7101 476,722.8431 476,750.8399 " fill="none" id="Nginx-port_80" style="stroke:#222266;stroke-width:1.0;"/><!--MD5=[d9a6ab16b40e5f0a16f65c71a9f2a7f4]
link port_80 to Web--><path d="M480.9101,769.3291 C489.9781,786.5584 509.6303,823.8975 522.8397,848.9954 " fill="none" id="port_80-Web" style="stroke:#222266;stroke-width:1.0;"/><!--MD5=[bd708b78a5eb0c94d73d3e4988739956]
link port_80 to Mobile--><path d="M471.0899,769.3291 C462.0219,786.5584 442.3697,823.8975 429.1603,848.9954 " fill="none" id="port_80-Mobile" style="stroke:#222266;stroke-width:1.0;"/><!--MD5=[fddd2f744a01b72d07d053afcf8f7d35]
link Web to Client1--><path d="M536,899.0952 C536,916.1196 536,939.0121 536,958.6386 " fill="none" id="Web-Client1" style="stroke:#222266;stroke-width:1.0;"/><!--MD5=[7264fd1a748e49842f8d74c905e11e98]
link Mobile to Client2--><path d="M416,899.0952 C416,916.1196 416,939.0121 416,958.6386 " fill="none" id="Mobile-Client2" style="stroke:#222266;stroke-width:1.0;"/><!--MD5=[420f8f451f91aea278b4b6d93c3f5f14]
@startuml
skinparam component {
    FontColor          black
    AttributeFontColor black
    FontSize           17
    AttributeFontSize  15
    AttributeFontname  Droid Sans Mono
    BackgroundColor    #6A9EFF
    BorderColor        black
    ArrowColor         #222266
}

skinparam database {
    FontColor          black
    AttributeFontColor black
    FontSize           17
    AttributeFontSize  15
    AttributeFontname  Droid Sans Mono
    BackgroundColor    #6A9E82
    BorderColor        black
    ArrowColor         #222266
}

skinparam actor {
    BackgroundColor    #6A44ff
    BorderColor        black
    ArrowColor         #222266
}

skinparam node {
    FontColor          black
    AttributeFontColor black
    FontSize           17
    AttributeFontSize  15
    AttributeFontname  Droid Sans Mono
    BackgroundColor    #FFA1F8
    BorderColor        black
    ArrowColor         #222266
}

node "VPN"{
    database Elasticsearch
    database Vendor_DB
    database User_info_DB
    database Redis

    component Logstash

    component Kibana
    component Admin_panel
    component Vendor_DB_API_Service
    component CV_HTTP_service
    component Nginx
    component Auth
    component Billing
    component CRM

    interface port_8000
    interface port_8001
    interface port_8002
    interface port_5432
    interface port_5601

    actor Manager
    actor DevOps

    Admin_panel -up- port_5432
    Admin_panel -down- port_8000

    Vendor_DB_API_Service -up- port_5432
    Vendor_DB_API_Service -up-> Logstash
    Vendor_DB_API_Service -down- port_8001
    port_8001 -down- Nginx

    CV_HTTP_service -right- Auth
    CV_HTTP_service -up-> Logstash
    CV_HTTP_service -down- port_8002
    port_8002 -down- Nginx

    Auth -right- User_info_DB
    Auth -down- Redis
    Auth -right- Billing
    Auth -right- CRM
    Auth -up-> Logstash

    Billing -left- User_info_DB
    Billing -up-> Logstash

    CRM -down- User_info_DB
    CRM -up- Billing
    CRM -up-> Logstash

    Logstash -up-> Elasticsearch

    Elasticsearch -right- Kibana

    Kibana -right- port_5601

    DevOps -left- port_5601

    Manager -up- port_8000

    Vendor_DB -down- port_5432
}

interface port_80
port_80 -up- - Nginx


node "Front"{
    [Web] -up- port_80
    [Mobile] -up- port_80
}

actor Client1
actor Client2

Client1 -up- Web
Client2 -up- Mobile
@enduml

PlantUML version 1.2021.11(Sat Oct 02 16:26:11 MSK 2021)
(GPL source distribution)
Java Runtime: OpenJDK Runtime Environment
JVM: OpenJDK 64-Bit Server VM
Default Encoding: UTF-8
Language: ru
Country: RU
--></g></svg>
