<svg xmlns="http://www.w3.org/2000/svg" xmlns:xlink="http://www.w3.org/1999/xlink" width="1127" height="1046" contentScriptType="application/ecmascript" contentStyleType="text/css" style="width:1127px;height:1046px;background:#fff" preserveAspectRatio="none" version="1.1" viewBox="0 0 1127 1046" zoomAndPan="magnify"><defs><filter id="fsa1c4ybzzoe0" width="300%" height="300%" x="-1" y="-1"><feGaussianBlur result="blurOut" stdDeviation="2"/><feColorMatrix in="blurOut" result="blurOut2" type="matrix" values="0 0 0 0 0 0 0 0 0 0 0 0 0 0 0 0 0 0 .4 0"/><feOffset dx="4" dy="4" in="blurOut2" result="blurOut3"/><feBlend in="SourceGraphic" in2="blurOut3" mode="normal"/></filter></defs><g><polygon fill="#FFA1F8" points="16 16 26 6 1110 6 1110 608 1100 618 16 618 16 16" filter="url(#fsa1c4ybzzoe0)" style="stroke:#000;stroke-width:1.5"/><line style="stroke:#000;stroke-width:1.5" x1="1100" x2="1110" y1="16" y2="6"/><line style="stroke:#000;stroke-width:1.5" x1="16" x2="1100" y1="16" y2="16"/><line style="stroke:#000;stroke-width:1.5" x1="1100" x2="1100" y1="16" y2="618"/><text x="541.5" y="35.435" fill="#000" font-family="sans-serif" font-size="17" font-weight="bold" lengthAdjust="spacing" textLength="35">VPN</text><polygon fill="#FFA1F8" points="360 823 370 813 582 813 582 897 572 907 360 907 360 823" filter="url(#fsa1c4ybzzoe0)" style="stroke:#000;stroke-width:1.5"/><line style="stroke:#000;stroke-width:1.5" x1="572" x2="582" y1="823" y2="813"/><line style="stroke:#000;stroke-width:1.5" x1="360" x2="572" y1="823" y2="823"/><line style="stroke:#000;stroke-width:1.5" x1="572" x2="572" y1="823" y2="907"/><text x="443.5" y="842.436" fill="#000" font-family="sans-serif" font-size="17" font-weight="bold" lengthAdjust="spacing" textLength="47">Front</text><path fill="#6A9E82" d="M670,68 C670,58 733,58 733,58 C733,58 796,58 796,68 L796,97.0215 C796,107.0215 733,107.0215 733,107.0215 C733,107.0215 670,107.0215 670,97.0215 L670,68" filter="url(#fsa1c4ybzzoe0)" style="stroke:#000;stroke-width:1.5"/><path fill="none" d="M670,68 C670,78 733,78 733,78 C733,78 796,78 796,68" style="stroke:#000;stroke-width:1.5"/><text x="680" y="98.436" fill="#000" font-family="sans-serif" font-size="17" lengthAdjust="spacing" textLength="106">Elasticsearch</text><path fill="#6A9E82" d="M156.5,68 C156.5,58 212,58 212,58 C212,58 267.5,58 267.5,68 L267.5,97.0215 C267.5,107.0215 212,107.0215 212,107.0215 C212,107.0215 156.5,107.0215 156.5,97.0215 L156.5,68" filter="url(#fsa1c4ybzzoe0)" style="stroke:#000;stroke-width:1.5"/><path fill="none" d="M156.5,68 C156.5,78 212,78 212,78 C212,78 267.5,78 267.5,68" style="stroke:#000;stroke-width:1.5"/><text x="166.5" y="98.436" fill="#000" font-family="sans-serif" font-size="17" lengthAdjust="spacing" textLength="91">Vendor_DB</text><path fill="#6A9E82" d="M808,311.5 C808,301.5 873,301.5 873,301.5 C873,301.5 938,301.5 938,311.5 L938,340.5215 C938,350.5215 873,350.5215 873,350.5215 C873,350.5215 808,350.5215 808,340.5215 L808,311.5" filter="url(#fsa1c4ybzzoe0)" style="stroke:#000;stroke-width:1.5"/><path fill="none" d="M808,311.5 C808,321.5 873,321.5 873,321.5 C873,321.5 938,321.5 938,311.5" style="stroke:#000;stroke-width:1.5"/><text x="818" y="341.935" fill="#000" font-family="sans-serif" font-size="17" lengthAdjust="spacing" textLength="110">User_info_DB</text><path fill="#6A9E82" d="M700.5,425.5 C700.5,415.5 733,415.5 733,415.5 C733,415.5 765.5,415.5 765.5,425.5 L765.5,454.5215 C765.5,464.5215 733,464.5215 733,464.5215 C733,464.5215 700.5,464.5215 700.5,454.5215 L700.5,425.5" filter="url(#fsa1c4ybzzoe0)" style="stroke:#000;stroke-width:1.5"/><path fill="none" d="M700.5,425.5 C700.5,435.5 733,435.5 733,435.5 C733,435.5 765.5,435.5 765.5,425.5" style="stroke:#000;stroke-width:1.5"/><text x="710.5" y="455.935" fill="#000" font-family="sans-serif" font-size="17" lengthAdjust="spacing" textLength="45">Redis</text><rect style="stroke:#000;stroke-width:1.5" width="114" height="50.022" x="676" y="187" fill="#6A9EFF" filter="url(#fsa1c4ybzzoe0)"/><rect style="stroke:#000;stroke-width:1.5" width="15" height="10" x="770" y="192" fill="#6A9EFF"/><rect style="stroke:#000;stroke-width:1.5" width="4" height="2" x="768" y="194" fill="#6A9EFF"/><rect style="stroke:#000;stroke-width:1.5" width="4" height="2" x="768" y="198" fill="#6A9EFF"/><text x="691" y="223.435" fill="#000" font-family="sans-serif" font-size="17" lengthAdjust="spacing" textLength="74">Logstash</text><rect style="stroke:#000;stroke-width:1.5" width="96" height="50.022" x="831" y="57.5" fill="#6A9EFF" filter="url(#fsa1c4ybzzoe0)"/><rect style="stroke:#000;stroke-width:1.5" width="15" height="10" x="907" y="62.5" fill="#6A9EFF"/><rect style="stroke:#000;stroke-width:1.5" width="4" height="2" x="905" y="64.5" fill="#6A9EFF"/><rect style="stroke:#000;stroke-width:1.5" width="4" height="2" x="905" y="68.5" fill="#6A9EFF"/><text x="846" y="93.936" fill="#000" font-family="sans-serif" font-size="17" lengthAdjust="spacing" textLength="56">Kibana</text><rect style="stroke:#000;stroke-width:1.5" width="149" height="50.022" x="24.5" y="301" fill="#6A9EFF" filter="url(#fsa1c4ybzzoe0)"/><rect style="stroke:#000;stroke-width:1.5" width="15" height="10" x="153.5" y="306" fill="#6A9EFF"/><rect style="stroke:#000;stroke-width:1.5" width="4" height="2" x="151.5" y="308" fill="#6A9EFF"/><rect style="stroke:#000;stroke-width:1.5" width="4" height="2" x="151.5" y="312" fill="#6A9EFF"/><text x="39.5" y="337.435" fill="#000" font-family="sans-serif" font-size="17" lengthAdjust="spacing" textLength="109">Admin_panel</text><rect style="stroke:#000;stroke-width:1.5" width="232" height="50.022" x="209" y="301" fill="#6A9EFF" filter="url(#fsa1c4ybzzoe0)"/><rect style="stroke:#000;stroke-width:1.5" width="15" height="10" x="421" y="306" fill="#6A9EFF"/><rect style="stroke:#000;stroke-width:1.5" width="4" height="2" x="419" y="308" fill="#6A9EFF"/><rect style="stroke:#000;stroke-width:1.5" width="4" height="2" x="419" y="312" fill="#6A9EFF"/><text x="224" y="337.435" fill="#000" font-family="sans-serif" font-size="17" lengthAdjust="spacing" textLength="192">Vendor_DB_API_Service</text><rect style="stroke:#000;stroke-width:1.5" width="181" height="50.022" x="476.5" y="301" fill="#6A9EFF" filter="url(#fsa1c4ybzzoe0)"/><rect style="stroke:#000;stroke-width:1.5" width="15" height="10" x="637.5" y="306" fill="#6A9EFF"/><rect style="stroke:#000;stroke-width:1.5" width="4" height="2" x="635.5" y="308" fill="#6A9EFF"/><rect style="stroke:#000;stroke-width:1.5" width="4" height="2" x="635.5" y="312" fill="#6A9EFF"/><text x="491.5" y="337.435" fill="#000" font-family="sans-serif" font-size="17" lengthAdjust="spacing" textLength="141">CV_HTTP_service</text><rect style="stroke:#000;stroke-width:1.5" width="90" height="50.022" x="431" y="544.5" fill="#6A9EFF" filter="url(#fsa1c4ybzzoe0)"/><rect style="stroke:#000;stroke-width:1.5" width="15" height="10" x="501" y="549.5" fill="#6A9EFF"/><rect style="stroke:#000;stroke-width:1.5" width="4" height="2" x="499" y="551.5" fill="#6A9EFF"/><rect style="stroke:#000;stroke-width:1.5" width="4" height="2" x="499" y="555.5" fill="#6A9EFF"/><text x="446" y="580.936" fill="#000" font-family="sans-serif" font-size="17" lengthAdjust="spacing" textLength="50">Nginx</text><rect style="stroke:#000;stroke-width:1.5" width="80" height="50.022" x="693" y="301" fill="#6A9EFF" filter="url(#fsa1c4ybzzoe0)"/><rect style="stroke:#000;stroke-width:1.5" width="15" height="10" x="753" y="306" fill="#6A9EFF"/><rect style="stroke:#000;stroke-width:1.5" width="4" height="2" x="751" y="308" fill="#6A9EFF"/><rect style="stroke:#000;stroke-width:1.5" width="4" height="2" x="751" y="312" fill="#6A9EFF"/><text x="708" y="337.435" fill="#000" font-family="sans-serif" font-size="17" lengthAdjust="spacing" textLength="40">Auth</text><rect style="stroke:#000;stroke-width:1.5" width="92" height="50.022" x="1010" y="301" fill="#6A9EFF" filter="url(#fsa1c4ybzzoe0)"/><rect style="stroke:#000;stroke-width:1.5" width="15" height="10" x="1082" y="306" fill="#6A9EFF"/><rect style="stroke:#000;stroke-width:1.5" width="4" height="2" x="1080" y="308" fill="#6A9EFF"/><rect style="stroke:#000;stroke-width:1.5" width="4" height="2" x="1080" y="312" fill="#6A9EFF"/><text x="1025" y="337.435" fill="#000" font-family="sans-serif" font-size="17" lengthAdjust="spacing" textLength="52">Billing</text><rect style="stroke:#000;stroke-width:1.5" width="78" height="50.022" x="884" y="415" fill="#6A9EFF" filter="url(#fsa1c4ybzzoe0)"/><rect style="stroke:#000;stroke-width:1.5" width="15" height="10" x="942" y="420" fill="#6A9EFF"/><rect style="stroke:#000;stroke-width:1.5" width="4" height="2" x="940" y="422" fill="#6A9EFF"/><rect style="stroke:#000;stroke-width:1.5" width="4" height="2" x="940" y="426" fill="#6A9EFF"/><text x="899" y="451.435" fill="#000" font-family="sans-serif" font-size="17" lengthAdjust="spacing" textLength="38">CRM</text><ellipse cx="99" cy="440" fill="#FEFECE" filter="url(#fsa1c4ybzzoe0)" rx="8" ry="8" style="stroke:#a80036;stroke-width:1.5"/><text x="63" y="470.535" fill="#000" font-family="sans-serif" font-size="14" lengthAdjust="spacing" textLength="72">port_8000</text><ellipse cx="355" cy="440" fill="#FEFECE" filter="url(#fsa1c4ybzzoe0)" rx="8" ry="8" style="stroke:#a80036;stroke-width:1.5"/><text x="319" y="470.535" fill="#000" font-family="sans-serif" font-size="14" lengthAdjust="spacing" textLength="72">port_8001</text><ellipse cx="508" cy="440" fill="#FEFECE" filter="url(#fsa1c4ybzzoe0)" rx="8" ry="8" style="stroke:#a80036;stroke-width:1.5"/><text x="472" y="470.535" fill="#000" font-family="sans-serif" font-size="14" lengthAdjust="spacing" textLength="72">port_8002</text><ellipse cx="212" cy="212" fill="#FEFECE" filter="url(#fsa1c4ybzzoe0)" rx="8" ry="8" style="stroke:#a80036;stroke-width:1.5"/><text x="176" y="242.535" fill="#000" font-family="sans-serif" font-size="14" lengthAdjust="spacing" textLength="72">port_5432</text><ellipse cx="971" cy="82.5" fill="#FEFECE" filter="url(#fsa1c4ybzzoe0)" rx="8" ry="8" style="stroke:#a80036;stroke-width:1.5"/><text x="935" y="113.035" fill="#000" font-family="sans-serif" font-size="14" lengthAdjust="spacing" textLength="72">port_5601</text><ellipse cx="99" cy="538.5" fill="#6A44FF" filter="url(#fsa1c4ybzzoe0)" rx="8" ry="8" style="stroke:#000;stroke-width:1.5"/><path fill="none" d="M99,546.5 L99,573.5 M86,554.5 L112,554.5 M99,573.5 L86,588.5 M99,573.5 L112,588.5" filter="url(#fsa1c4ybzzoe0)" style="stroke:#000;stroke-width:1.5"/><text x="69" y="607.535" fill="#000" font-family="sans-serif" font-size="14" lengthAdjust="spacing" textLength="60">Manager</text><ellipse cx="1041" cy="51.5" fill="#6A44FF" filter="url(#fsa1c4ybzzoe0)" rx="8" ry="8" style="stroke:#000;stroke-width:1.5"/><path fill="none" d="M1041,59.5 L1041,86.5 M1028,67.5 L1054,67.5 M1041,86.5 L1028,101.5 M1041,86.5 L1054,101.5" filter="url(#fsa1c4ybzzoe0)" style="stroke:#000;stroke-width:1.5"/><text x="1015" y="120.535" fill="#000" font-family="sans-serif" font-size="14" lengthAdjust="spacing" textLength="52">DevOps</text><rect style="stroke:#000;stroke-width:1.5" width="75" height="50.022" x="498.5" y="849" fill="#6A9EFF" filter="url(#fsa1c4ybzzoe0)"/><rect style="stroke:#000;stroke-width:1.5" width="15" height="10" x="553.5" y="854" fill="#6A9EFF"/><rect style="stroke:#000;stroke-width:1.5" width="4" height="2" x="551.5" y="856" fill="#6A9EFF"/><rect style="stroke:#000;stroke-width:1.5" width="4" height="2" x="551.5" y="860" fill="#6A9EFF"/><text x="513.5" y="885.436" fill="#000" font-family="sans-serif" font-size="17" lengthAdjust="spacing" textLength="35">Web</text><rect style="stroke:#000;stroke-width:1.5" width="95" height="50.022" x="368.5" y="849" fill="#6A9EFF" filter="url(#fsa1c4ybzzoe0)"/><rect style="stroke:#000;stroke-width:1.5" width="15" height="10" x="443.5" y="854" fill="#6A9EFF"/><rect style="stroke:#000;stroke-width:1.5" width="4" height="2" x="441.5" y="856" fill="#6A9EFF"/><rect style="stroke:#000;stroke-width:1.5" width="4" height="2" x="441.5" y="860" fill="#6A9EFF"/><text x="383.5" y="885.436" fill="#000" font-family="sans-serif" font-size="17" lengthAdjust="spacing" textLength="55">Mobile</text><ellipse cx="476" cy="760" fill="#FEFECE" filter="url(#fsa1c4ybzzoe0)" rx="8" ry="8" style="stroke:#a80036;stroke-width:1.5"/><text x="449" y="790.535" fill="#000" font-family="sans-serif" font-size="14" lengthAdjust="spacing" textLength="54">port_80</text><ellipse cx="536" cy="968.5" fill="#6A44FF" filter="url(#fsa1c4ybzzoe0)" rx="8" ry="8" style="stroke:#000;stroke-width:1.5"/><path fill="none" d="M536,976.5 L536,1003.5 M523,984.5 L549,984.5 M536,1003.5 L523,1018.5 M536,1003.5 L549,1018.5" filter="url(#fsa1c4ybzzoe0)" style="stroke:#000;stroke-width:1.5"/><text x="511.5" y="1037.535" fill="#000" font-family="sans-serif" font-size="14" lengthAdjust="spacing" textLength="49">Client1</text><ellipse cx="416" cy="968.5" fill="#6A44FF" filter="url(#fsa1c4ybzzoe0)" rx="8" ry="8" style="stroke:#000;stroke-width:1.5"/><path fill="none" d="M416,976.5 L416,1003.5 M403,984.5 L429,984.5 M416,1003.5 L403,1018.5 M416,1003.5 L429,1018.5" filter="url(#fsa1c4ybzzoe0)" style="stroke:#000;stroke-width:1.5"/><text x="391.5" y="1037.535" fill="#000" font-family="sans-serif" font-size="14" lengthAdjust="spacing" textLength="49">Client2</text><path id="port_5432-Admin_panel" fill="none" d="M202.7527,221.3291 C185.6746,238.5584 148.663,275.8975 123.7852,300.9954" style="stroke:#226;stroke-width:1"/><path id="Admin_panel-port_8000" fill="none" d="M99,351.0178 C99,376.1861 99,413.6544 99,430.8156" style="stroke:#226;stroke-width:1"/><path id="port_5432-Vendor_DB_API_Service" fill="none" d="M221.2473,221.3291 C238.3254,238.5584 275.337,275.8975 300.2148,300.9954" style="stroke:#226;stroke-width:1"/><path id="Logstash-backto-Vendor_DB_API_Service" fill="none" d="M671.0001,229.3235 C602.759,248.3909 492.4512,279.2122 414.7631,300.9191" style="stroke:#226;stroke-width:1"/><polygon fill="#226" points="675.84 227.971 666.095 226.541 671.024 229.317 668.248 234.246 675.84 227.971" style="stroke:#226;stroke-width:1"/><path id="Vendor_DB_API_Service-port_8001" fill="none" d="M331.5836,351.0178 C338.2069,376.1861 348.067,413.6544 352.5831,430.8156" style="stroke:#226;stroke-width:1"/><path id="port_8001-Nginx" fill="none" d="M363.702,449.3133 C382.0717,468.9735 425.3461,515.2878 452.4928,544.3415" style="stroke:#226;stroke-width:1"/><path id="CV_HTTP_service-Auth" fill="none" d="M657.7813,326 C669.4362,326 681.0912,326 692.7462,326" style="stroke:#226;stroke-width:1"/><path id="Logstash-backto-CV_HTTP_service" fill="none" d="M692.2928,239.9555 C665.1831,258.573 629.8589,282.8318 603.6309,300.8438" style="stroke:#226;stroke-width:1"/><polygon fill="#226" points="696.571 237.018 686.887 238.816 692.449 239.848 691.416 245.41 696.571 237.018" style="stroke:#226;stroke-width:1"/><path id="CV_HTTP_service-port_8002" fill="none" d="M554.0522,351.0178 C541.0265,376.1861 521.635,413.6544 512.7533,430.8156" style="stroke:#226;stroke-width:1"/><path id="port_8002-Nginx" fill="none" d="M505.6986,449.3133 C500.8405,468.9735 489.3961,515.2878 482.2168,544.3415" style="stroke:#226;stroke-width:1"/><path id="Auth-User_info_DB" fill="none" d="M773.1953,326 C784.7612,326 796.3271,326 807.893,326" style="stroke:#226;stroke-width:1"/><path id="Auth-Redis" fill="none" d="M733,351.0178 C733,370.1562 733,396.4069 733,415.4325" style="stroke:#226;stroke-width:1"/><path id="Auth-Billing" fill="none" d="M758.9592,300.738 C772.546,289.2795 790.1502,276.975 808.5,271 C874.849,249.3955 898.3072,252.1835 965.5,271 C986.7456,276.9496 1007.9587,289.4064 1024.5016,300.9626" style="stroke:#226;stroke-width:1"/><path id="Auth-CRM" fill="none" d="M773.2941,350.1765 C805.8645,369.7187 851.4491,397.0695 883.7399,416.444" style="stroke:#226;stroke-width:1"/><path id="Logstash-backto-Auth" fill="none" d="M733,242.0289 C733,260.277 733,283.3182 733,300.6466" style="stroke:#226;stroke-width:1"/><polygon fill="#226" points="733 237.018 729 246.018 733 242.018 737 246.018 733 237.018" style="stroke:#226;stroke-width:1"/><path id="User_info_DB-Billing" fill="none" d="M938.0508,326 C962.0092,326 985.9677,326 1009.9261,326" style="stroke:#226;stroke-width:1"/><path id="Logstash-backto-Billing" fill="none" d="M794.8383,233.8253 C857.5883,255.9723 953.295,289.7512 1009.7575,309.6791" style="stroke:#226;stroke-width:1"/><polygon fill="#226" points="790.002 232.119 797.158 238.886 794.717 233.783 799.821 231.342 790.002 232.119" style="stroke:#226;stroke-width:1"/><path id="CRM-User_info_DB" fill="none" d="M911.9993,414.9183 C903.6324,395.842 892.1785,369.7269 883.8493,350.7363" style="stroke:#226;stroke-width:1"/><path id="Billing-CRM" fill="none" d="M1026.8126,351.0178 C1004.7903,369.894 974.6961,395.689 952.5789,414.6466" style="stroke:#226;stroke-width:1"/><path id="Logstash-backto-CRM" fill="none" d="M795.0607,218.0184 C847.7281,226.7741 920.266,248.2636 956,301 C979.5131,335.7006 957.5999,385.1627 939.9902,414.7737" style="stroke:#226;stroke-width:1"/><polygon fill="#226" points="790.028 217.21 798.28 222.587 794.965 218.003 799.548 214.688 790.028 217.21" style="stroke:#226;stroke-width:1"/><path id="Elasticsearch-backto-Logstash" fill="none" d="M733,112.434 C733,135.0341 733,165.688 733,186.9879" style="stroke:#226;stroke-width:1"/><polygon fill="#226" points="733 107.163 729 116.163 733 112.163 737 116.163 733 107.163" style="stroke:#226;stroke-width:1"/><path id="Elasticsearch-Kibana" fill="none" d="M796.0195,82.5 C807.5806,82.5 819.1417,82.5 830.7028,82.5" style="stroke:#226;stroke-width:1"/><path id="Kibana-port_5601" fill="none" d="M927.1563,82.5 C938.6881,82.5 950.2199,82.5 961.7517,82.5" style="stroke:#226;stroke-width:1"/><path id="port_5601-DevOps" fill="none" d="M980.0234,82.5 C991.6153,82.5 1003.2072,82.5 1014.7991,82.5" style="stroke:#226;stroke-width:1"/><path id="port_8000-Manager" fill="none" d="M99,449.3133 C99,465.7258 99,500.7136 99,528.7281" style="stroke:#226;stroke-width:1"/><path id="Vendor_DB-port_5432" fill="none" d="M212,107.1628 C212,136.2233 212,183.0451 212,202.7694" style="stroke:#226;stroke-width:1"/><path id="Nginx-port_80" fill="none" d="M476,594.7969 C476,637.7101 476,722.8431 476,750.8399" style="stroke:#226;stroke-width:1"/><path id="port_80-Web" fill="none" d="M480.9101,769.3291 C489.9781,786.5584 509.6303,823.8975 522.8397,848.9954" style="stroke:#226;stroke-width:1"/><path id="port_80-Mobile" fill="none" d="M471.0899,769.3291 C462.0219,786.5584 442.3697,823.8975 429.1603,848.9954" style="stroke:#226;stroke-width:1"/><path id="Web-Client1" fill="none" d="M536,899.0952 C536,916.1196 536,939.0121 536,958.6386" style="stroke:#226;stroke-width:1"/><path id="Mobile-Client2" fill="none" d="M416,899.0952 C416,916.1196 416,939.0121 416,958.6386" style="stroke:#226;stroke-width:1"/></g></svg>