<?xml version="1.0" encoding="UTF-8" standalone="no"?><svg xmlns="http://www.w3.org/2000/svg" xmlns:xlink="http://www.w3.org/1999/xlink" contentScriptType="application/ecmascript" contentStyleType="text/css" height="1274px" preserveAspectRatio="none" style="width:683px;height:1274px;background:#FFFFFF;" version="1.1" viewBox="0 0 683 1274" width="683px" zoomAndPan="magnify"><defs><filter height="300%" id="f1to1w9uf2stiu" width="300%" x="-1" y="-1"><feGaussianBlur result="blurOut" stdDeviation="2.0"/><feColorMatrix in="blurOut" result="blurOut2" type="matrix" values="0 0 0 0 0 0 0 0 0 0 0 0 0 0 0 0 0 0 .4 0"/><feOffset dx="4.0" dy="4.0" in="blurOut2" result="blurOut3"/><feBlend in="SourceGraphic" in2="blurOut3" mode="normal"/></filter></defs><g><!--MD5=[755bfa3dd29571ae64598e3c7698531d]
cluster VPN--><polygon fill="#FFA1F8" filter="url(#f1to1w9uf2stiu)" points="16,16,26,6,666,6,666,836,656,846,16,846,16,16" style="stroke:#000000;stroke-width:1.5;"/><line style="stroke:#000000;stroke-width:1.5;" x1="656" x2="666" y1="16" y2="6"/><line style="stroke:#000000;stroke-width:1.5;" x1="16" x2="656" y1="16" y2="16"/><line style="stroke:#000000;stroke-width:1.5;" x1="656" x2="656" y1="16" y2="846"/><text fill="#000000" font-family="sans-serif" font-size="17" font-weight="bold" lengthAdjust="spacing" textLength="35" x="319.5" y="35.4355">VPN</text><!--MD5=[693167bafc98937ea57d8098595f952f]
cluster Front--><polygon fill="#FFA1F8" filter="url(#f1to1w9uf2stiu)" points="330,1051,340,1041,552,1041,552,1125,542,1135,330,1135,330,1051" style="stroke:#000000;stroke-width:1.5;"/><line style="stroke:#000000;stroke-width:1.5;" x1="542" x2="552" y1="1051" y2="1041"/><line style="stroke:#000000;stroke-width:1.5;" x1="330" x2="542" y1="1051" y2="1051"/><line style="stroke:#000000;stroke-width:1.5;" x1="542" x2="542" y1="1051" y2="1135"/><text fill="#000000" font-family="sans-serif" font-size="17" font-weight="bold" lengthAdjust="spacing" textLength="47" x="413.5" y="1070.4355">Front</text><!--MD5=[783dc9e3eeef317a9da1c323dfb778fc]
entity Elasticsearch--><path d="M261,68 C261,58 324,58 324,58 C324,58 387,58 387,68 L387,97.0215 C387,107.0215 324,107.0215 324,107.0215 C324,107.0215 261,107.0215 261,97.0215 L261,68 " fill="#6A9E82" filter="url(#f1to1w9uf2stiu)" style="stroke:#000000;stroke-width:1.5;"/><path d="M261,68 C261,78 324,78 324,78 C324,78 387,78 387,68 " fill="none" style="stroke:#000000;stroke-width:1.5;"/><text fill="#000000" font-family="sans-serif" font-size="17" lengthAdjust="spacing" textLength="106" x="271" y="98.4355">Elasticsearch</text><!--MD5=[8e41bcf8bcfea632130e5450c74a85e7]
entity Vendor_DB--><path d="M82.5,311.5 C82.5,301.5 138,301.5 138,301.5 C138,301.5 193.5,301.5 193.5,311.5 L193.5,340.5215 C193.5,350.5215 138,350.5215 138,350.5215 C138,350.5215 82.5,350.5215 82.5,340.5215 L82.5,311.5 " fill="#6A9E82" filter="url(#f1to1w9uf2stiu)" style="stroke:#000000;stroke-width:1.5;"/><path d="M82.5,311.5 C82.5,321.5 138,321.5 138,321.5 C138,321.5 193.5,321.5 193.5,311.5 " fill="none" style="stroke:#000000;stroke-width:1.5;"/><text fill="#000000" font-family="sans-serif" font-size="17" lengthAdjust="spacing" textLength="91" x="92.5" y="341.9355">Vendor_DB</text><!--MD5=[07c60c103691430df8c2886af2ad29eb]
entity Logstash--><rect fill="#6A9EFF" filter="url(#f1to1w9uf2stiu)" height="50.0215" style="stroke:#000000;stroke-width:1.5;" width="114" x="268" y="301"/><rect fill="#6A9EFF" height="10" style="stroke:#000000;stroke-width:1.5;" width="15" x="362" y="306"/><rect fill="#6A9EFF" height="2" style="stroke:#000000;stroke-width:1.5;" width="4" x="360" y="308"/><rect fill="#6A9EFF" height="2" style="stroke:#000000;stroke-width:1.5;" width="4" x="360" y="312"/><text fill="#000000" font-family="sans-serif" font-size="17" lengthAdjust="spacing" textLength="74" x="283" y="337.4355">Logstash</text><!--MD5=[9b8f59e66ae7ec468b34308e0cee7a31]
entity Kibana--><rect fill="#6A9EFF" filter="url(#f1to1w9uf2stiu)" height="50.0215" style="stroke:#000000;stroke-width:1.5;" width="96" x="422" y="57.5"/><rect fill="#6A9EFF" height="10" style="stroke:#000000;stroke-width:1.5;" width="15" x="498" y="62.5"/><rect fill="#6A9EFF" height="2" style="stroke:#000000;stroke-width:1.5;" width="4" x="496" y="64.5"/><rect fill="#6A9EFF" height="2" style="stroke:#000000;stroke-width:1.5;" width="4" x="496" y="68.5"/><text fill="#000000" font-family="sans-serif" font-size="17" lengthAdjust="spacing" textLength="56" x="437" y="93.9355">Kibana</text><!--MD5=[e290ce1d73df4ab7e7b343154c9678f9]
entity Admin_panel--><rect fill="#6A9EFF" filter="url(#f1to1w9uf2stiu)" height="50.0215" style="stroke:#000000;stroke-width:1.5;" width="149" x="24.5" y="529"/><rect fill="#6A9EFF" height="10" style="stroke:#000000;stroke-width:1.5;" width="15" x="153.5" y="534"/><rect fill="#6A9EFF" height="2" style="stroke:#000000;stroke-width:1.5;" width="4" x="151.5" y="536"/><rect fill="#6A9EFF" height="2" style="stroke:#000000;stroke-width:1.5;" width="4" x="151.5" y="540"/><text fill="#000000" font-family="sans-serif" font-size="17" lengthAdjust="spacing" textLength="109" x="39.5" y="565.4355">Admin_panel</text><!--MD5=[784d1d874387c9b10bfcbe9124f885e5]
entity Vendor_DB_API_Service--><rect fill="#6A9EFF" filter="url(#f1to1w9uf2stiu)" height="50.0215" style="stroke:#000000;stroke-width:1.5;" width="232" x="209" y="529"/><rect fill="#6A9EFF" height="10" style="stroke:#000000;stroke-width:1.5;" width="15" x="421" y="534"/><rect fill="#6A9EFF" height="2" style="stroke:#000000;stroke-width:1.5;" width="4" x="419" y="536"/><rect fill="#6A9EFF" height="2" style="stroke:#000000;stroke-width:1.5;" width="4" x="419" y="540"/><text fill="#000000" font-family="sans-serif" font-size="17" lengthAdjust="spacing" textLength="192" x="224" y="565.4355">Vendor_DB_API_Service</text><!--MD5=[6ac8b63fdd46cc8523881e6d2365f52a]
entity CV_HTTP_service--><rect fill="#6A9EFF" filter="url(#f1to1w9uf2stiu)" height="50.0215" style="stroke:#000000;stroke-width:1.5;" width="181" x="476.5" y="529"/><rect fill="#6A9EFF" height="10" style="stroke:#000000;stroke-width:1.5;" width="15" x="637.5" y="534"/><rect fill="#6A9EFF" height="2" style="stroke:#000000;stroke-width:1.5;" width="4" x="635.5" y="536"/><rect fill="#6A9EFF" height="2" style="stroke:#000000;stroke-width:1.5;" width="4" x="635.5" y="540"/><text fill="#000000" font-family="sans-serif" font-size="17" lengthAdjust="spacing" textLength="141" x="491.5" y="565.4355">CV_HTTP_service</text><!--MD5=[b7709df717efd9e6df0e9843c5de81db]
entity Nginx--><rect fill="#6A9EFF" filter="url(#f1to1w9uf2stiu)" height="50.0215" style="stroke:#000000;stroke-width:1.5;" width="90" x="401" y="772.5"/><rect fill="#6A9EFF" height="10" style="stroke:#000000;stroke-width:1.5;" width="15" x="471" y="777.5"/><rect fill="#6A9EFF" height="2" style="stroke:#000000;stroke-width:1.5;" width="4" x="469" y="779.5"/><rect fill="#6A9EFF" height="2" style="stroke:#000000;stroke-width:1.5;" width="4" x="469" y="783.5"/><text fill="#000000" font-family="sans-serif" font-size="17" lengthAdjust="spacing" textLength="50" x="416" y="808.9355">Nginx</text><!--MD5=[ff8ff1b9124d8226c243bd0d10adfb7e]
entity CRM--><rect fill="#6A9EFF" filter="url(#f1to1w9uf2stiu)" height="50.0215" style="stroke:#000000;stroke-width:1.5;" width="78" x="369" y="415"/><rect fill="#6A9EFF" height="10" style="stroke:#000000;stroke-width:1.5;" width="15" x="427" y="420"/><rect fill="#6A9EFF" height="2" style="stroke:#000000;stroke-width:1.5;" width="4" x="425" y="422"/><rect fill="#6A9EFF" height="2" style="stroke:#000000;stroke-width:1.5;" width="4" x="425" y="426"/><text fill="#000000" font-family="sans-serif" font-size="17" lengthAdjust="spacing" textLength="38" x="384" y="451.4355">CRM</text><!--MD5=[899629aacf9ceed11a0fc7b2ab0e7e58]
entity port_8000--><ellipse cx="99" cy="668" fill="#FEFECE" filter="url(#f1to1w9uf2stiu)" rx="8" ry="8" style="stroke:#A80036;stroke-width:1.5;"/><text fill="#000000" font-family="sans-serif" font-size="14" lengthAdjust="spacing" textLength="72" x="63" y="698.5352">port_8000</text><!--MD5=[3ea2b7d603bd1cdafc433bcd0b4ea9aa]
entity port_8001--><ellipse cx="355" cy="668" fill="#FEFECE" filter="url(#f1to1w9uf2stiu)" rx="8" ry="8" style="stroke:#A80036;stroke-width:1.5;"/><text fill="#000000" font-family="sans-serif" font-size="14" lengthAdjust="spacing" textLength="72" x="319" y="698.5352">port_8001</text><!--MD5=[9d60b2aa657131cc4464b2d11504becd]
entity port_8002--><ellipse cx="537" cy="668" fill="#FEFECE" filter="url(#f1to1w9uf2stiu)" rx="8" ry="8" style="stroke:#A80036;stroke-width:1.5;"/><text fill="#000000" font-family="sans-serif" font-size="14" lengthAdjust="spacing" textLength="72" x="501" y="698.5352">port_8002</text><!--MD5=[c6773d1dedc36e8d13b0095e7d917e9a]
entity port_5432--><ellipse cx="138" cy="440" fill="#FEFECE" filter="url(#f1to1w9uf2stiu)" rx="8" ry="8" style="stroke:#A80036;stroke-width:1.5;"/><text fill="#000000" font-family="sans-serif" font-size="14" lengthAdjust="spacing" textLength="72" x="102" y="470.5352">port_5432</text><!--MD5=[b5bc67689494d1e06a43d3b0ef27a622]
entity port_5601--><ellipse cx="562" cy="82.5" fill="#FEFECE" filter="url(#f1to1w9uf2stiu)" rx="8" ry="8" style="stroke:#A80036;stroke-width:1.5;"/><text fill="#000000" font-family="sans-serif" font-size="14" lengthAdjust="spacing" textLength="72" x="526" y="113.0352">port_5601</text><!--MD5=[01f9dc261b5efb74202b28d61164538c]
entity port_9200--><ellipse cx="324" cy="212" fill="#FEFECE" filter="url(#f1to1w9uf2stiu)" rx="8" ry="8" style="stroke:#A80036;stroke-width:1.5;"/><text fill="#000000" font-family="sans-serif" font-size="14" lengthAdjust="spacing" textLength="72" x="288" y="242.5352">port_9200</text><!--MD5=[362a2fd3ad45e96e2eb7242865bfb65e]
entity port_udp_5044--><ellipse cx="325" cy="440" fill="#FEFECE" filter="url(#f1to1w9uf2stiu)" rx="8" ry="8" style="stroke:#A80036;stroke-width:1.5;"/><text fill="#000000" font-family="sans-serif" font-size="14" lengthAdjust="spacing" textLength="106" x="272" y="470.5352">port_udp_5044</text><!--MD5=[327d8b0cc9017ef0d2f4054fa6547e20]
entity Manager--><ellipse cx="99" cy="766.5" fill="#6A44FF" filter="url(#f1to1w9uf2stiu)" rx="8" ry="8" style="stroke:#000000;stroke-width:1.5;"/><path d="M99,774.5 L99,801.5 M86,782.5 L112,782.5 M99,801.5 L86,816.5 M99,801.5 L112,816.5 " fill="none" filter="url(#f1to1w9uf2stiu)" style="stroke:#000000;stroke-width:1.5;"/><text fill="#000000" font-family="sans-serif" font-size="14" lengthAdjust="spacing" textLength="60" x="69" y="835.5352">Manager</text><!--MD5=[9d1330f94e15b99f5c39504305aed57e]
entity DevOps--><ellipse cx="632" cy="51.5" fill="#6A44FF" filter="url(#f1to1w9uf2stiu)" rx="8" ry="8" style="stroke:#000000;stroke-width:1.5;"/><path d="M632,59.5 L632,86.5 M619,67.5 L645,67.5 M632,86.5 L619,101.5 M632,86.5 L645,101.5 " fill="none" filter="url(#f1to1w9uf2stiu)" style="stroke:#000000;stroke-width:1.5;"/><text fill="#000000" font-family="sans-serif" font-size="14" lengthAdjust="spacing" textLength="52" x="606" y="120.5352">DevOps</text><!--MD5=[3193059314a247eafe92785e7a6ac74f]
entity Web--><rect fill="#6A9EFF" filter="url(#f1to1w9uf2stiu)" height="50.0215" style="stroke:#000000;stroke-width:1.5;" width="75" x="468.5" y="1077"/><rect fill="#6A9EFF" height="10" style="stroke:#000000;stroke-width:1.5;" width="15" x="523.5" y="1082"/><rect fill="#6A9EFF" height="2" style="stroke:#000000;stroke-width:1.5;" width="4" x="521.5" y="1084"/><rect fill="#6A9EFF" height="2" style="stroke:#000000;stroke-width:1.5;" width="4" x="521.5" y="1088"/><text fill="#000000" font-family="sans-serif" font-size="17" lengthAdjust="spacing" textLength="35" x="483.5" y="1113.4355">Web</text><!--MD5=[196d6eeb2242891742fda3f334b4ab6e]
entity Mobile--><rect fill="#6A9EFF" filter="url(#f1to1w9uf2stiu)" height="50.0215" style="stroke:#000000;stroke-width:1.5;" width="95" x="338.5" y="1077"/><rect fill="#6A9EFF" height="10" style="stroke:#000000;stroke-width:1.5;" width="15" x="413.5" y="1082"/><rect fill="#6A9EFF" height="2" style="stroke:#000000;stroke-width:1.5;" width="4" x="411.5" y="1084"/><rect fill="#6A9EFF" height="2" style="stroke:#000000;stroke-width:1.5;" width="4" x="411.5" y="1088"/><text fill="#000000" font-family="sans-serif" font-size="17" lengthAdjust="spacing" textLength="55" x="353.5" y="1113.4355">Mobile</text><!--MD5=[21a53ea847074d58f6a7c93457b0a8b1]
entity port_80--><ellipse cx="446" cy="988" fill="#FEFECE" filter="url(#f1to1w9uf2stiu)" rx="8" ry="8" style="stroke:#A80036;stroke-width:1.5;"/><text fill="#000000" font-family="sans-serif" font-size="14" lengthAdjust="spacing" textLength="54" x="419" y="1018.5352">port_80</text><!--MD5=[261b70d766cf3b488716fdc7774eedb5]
entity Client1--><ellipse cx="506" cy="1196.5" fill="#6A44FF" filter="url(#f1to1w9uf2stiu)" rx="8" ry="8" style="stroke:#000000;stroke-width:1.5;"/><path d="M506,1204.5 L506,1231.5 M493,1212.5 L519,1212.5 M506,1231.5 L493,1246.5 M506,1231.5 L519,1246.5 " fill="none" filter="url(#f1to1w9uf2stiu)" style="stroke:#000000;stroke-width:1.5;"/><text fill="#000000" font-family="sans-serif" font-size="14" lengthAdjust="spacing" textLength="49" x="481.5" y="1265.5352">Client1</text><!--MD5=[87b5331bd98359a6a5d777d873059d3a]
entity Client2--><ellipse cx="386" cy="1196.5" fill="#6A44FF" filter="url(#f1to1w9uf2stiu)" rx="8" ry="8" style="stroke:#000000;stroke-width:1.5;"/><path d="M386,1204.5 L386,1231.5 M373,1212.5 L399,1212.5 M386,1231.5 L373,1246.5 M386,1231.5 L399,1246.5 " fill="none" filter="url(#f1to1w9uf2stiu)" style="stroke:#000000;stroke-width:1.5;"/><text fill="#000000" font-family="sans-serif" font-size="14" lengthAdjust="spacing" textLength="49" x="361.5" y="1265.5352">Client2</text><!--MD5=[2fb5bca7c7e3ee872008ce8a9704d963]
link port_5432 to Admin_panel--><path d="M134.8085,449.3291 C128.9142,466.5584 116.1403,503.8975 107.5542,528.9954 " fill="none" id="port_5432-Admin_panel" style="stroke:#222266;stroke-width:1.0;"/><!--MD5=[98f343313013d9f46c43147ab1a3ea1f]
link Admin_panel to port_8000--><path d="M99,579.0178 C99,604.1861 99,641.6544 99,658.8156 " fill="none" id="Admin_panel-port_8000" style="stroke:#222266;stroke-width:1.0;"/><!--MD5=[a1f2220eecb30da26b9ac3eeaec3ed66]
link Elasticsearch to port_9200--><path d="M324,107.1628 C324,136.2233 324,183.0451 324,202.7694 " fill="none" id="Elasticsearch-port_9200" style="stroke:#222266;stroke-width:1.0;"/><!--MD5=[57d3155a287b8edb54ebb1212292adf4]
link Logstash to port_udp_5044--><path d="M325,351.0178 C325,376.1861 325,413.6544 325,430.8156 " fill="none" id="Logstash-port_udp_5044" style="stroke:#222266;stroke-width:1.0;"/><!--MD5=[42aee4f9e7f9f63bc63e16236c3fc16c]
link port_9200 to Logstash--><path d="M324.0818,221.3291 C324.233,238.5584 324.5605,275.8975 324.7807,300.9954 " fill="none" id="port_9200-Logstash" style="stroke:#222266;stroke-width:1.0;"/><!--MD5=[9d187edd6cb49dd7c2a67b04b3f30e40]
link port_5432 to Vendor_DB_API_Service--><path d="M147.0194,445.4985 C171.3141,460.3091 239.2939,501.7514 283.8572,528.9183 " fill="none" id="port_5432-Vendor_DB_API_Service" style="stroke:#222266;stroke-width:1.0;"/><!--MD5=[07563af21dba4aee2c06f0f83cf2e9b8]
reverse link port_udp_5044 to Vendor_DB_API_Service--><path d="M325,454.6784 C325,473.4519 325,506.2504 325,528.9954 " fill="none" id="port_udp_5044-backto-Vendor_DB_API_Service" style="stroke:#222266;stroke-width:1.0;"/><polygon fill="#222266" points="325,449.3291,321,458.3291,325,454.3291,329,458.3291,325,449.3291" style="stroke:#222266;stroke-width:1.0;"/><!--MD5=[4e0b5d07b3f98deaf652158ce2271953]
link Vendor_DB_API_Service to port_8001--><path d="M331.5836,579.0178 C338.2069,604.1861 348.067,641.6544 352.5831,658.8156 " fill="none" id="Vendor_DB_API_Service-port_8001" style="stroke:#222266;stroke-width:1.0;"/><!--MD5=[07e110991f3f517b8ea1ff33794cbe86]
link port_8001 to Nginx--><path d="M361.5445,677.3133 C375.3597,696.9735 407.9049,743.2878 428.3211,772.3415 " fill="none" id="port_8001-Nginx" style="stroke:#222266;stroke-width:1.0;"/><!--MD5=[c6502f7bf49676b454e97ee005f02d06]
reverse link port_udp_5044 to CV_HTTP_service--><path d="M335.0323,453.1468 C339.7191,458.6113 345.6608,464.6743 352,469 C390.3761,495.1866 438.003,515.07 478.6698,528.9966 " fill="none" id="port_udp_5044-backto-CV_HTTP_service" style="stroke:#222266;stroke-width:1.0;"/><polygon fill="#222266" points="331.7071,449.1233,334.3573,458.6089,334.8924,452.9774,340.5238,453.5125,331.7071,449.1233" style="stroke:#222266;stroke-width:1.0;"/><!--MD5=[3f800fb62523772baa03f8a49b12a85c]
link CV_HTTP_service to port_8002--><path d="M560.4164,579.0178 C553.7931,604.1861 543.933,641.6544 539.4169,658.8156 " fill="none" id="CV_HTTP_service-port_8002" style="stroke:#222266;stroke-width:1.0;"/><!--MD5=[2a67d4bd91ef3d11dbe9ec604495b284]
link port_8002 to Nginx--><path d="M530.4555,677.3133 C516.6403,696.9735 484.0951,743.2878 463.6789,772.3415 " fill="none" id="port_8002-Nginx" style="stroke:#222266;stroke-width:1.0;"/><!--MD5=[ad9314b49a66c9e21500177626b95294]
reverse link port_udp_5044 to CRM--><path d="M339.2216,440 C349.0574,440 358.8932,440 368.729,440 " fill="none" id="port_udp_5044-backto-CRM" style="stroke:#222266;stroke-width:1.0;"/><polygon fill="#222266" points="334.0781,440,343.0781,444,339.0781,440,343.0781,436,334.0781,440" style="stroke:#222266;stroke-width:1.0;"/><!--MD5=[048503d3e4d7a2e2168c3c1996ed2c8e]
link Elasticsearch to Kibana--><path d="M387.0195,82.5 C398.5806,82.5 410.1417,82.5 421.7028,82.5 " fill="none" id="Elasticsearch-Kibana" style="stroke:#222266;stroke-width:1.0;"/><!--MD5=[fee6d574a89dbefe632f1ff867089a2a]
link Kibana to port_5601--><path d="M518.1563,82.5 C529.6881,82.5 541.2199,82.5 552.7517,82.5 " fill="none" id="Kibana-port_5601" style="stroke:#222266;stroke-width:1.0;"/><!--MD5=[f660784e32dbfa90a6dd3a8893df11cf]
link port_5601 to DevOps--><path d="M571.0234,82.5 C582.6153,82.5 594.2072,82.5 605.7991,82.5 " fill="none" id="port_5601-DevOps" style="stroke:#222266;stroke-width:1.0;"/><!--MD5=[7f27d2f623760fe5436bce29e1954d0f]
link port_8000 to Manager--><path d="M99,677.3133 C99,693.7258 99,728.7136 99,756.7281 " fill="none" id="port_8000-Manager" style="stroke:#222266;stroke-width:1.0;"/><!--MD5=[de550f772c07af88d63e922042a7f6c9]
link Vendor_DB to port_5432--><path d="M138,350.7363 C138,375.8825 138,413.5203 138,430.7675 " fill="none" id="Vendor_DB-port_5432" style="stroke:#222266;stroke-width:1.0;"/><!--MD5=[03158dc547cdf27cf6a469d333fc5d4c]
link Nginx to port_80--><path d="M446,822.7969 C446,865.7101 446,950.8431 446,978.8399 " fill="none" id="Nginx-port_80" style="stroke:#222266;stroke-width:1.0;"/><!--MD5=[d9a6ab16b40e5f0a16f65c71a9f2a7f4]
link port_80 to Web--><path d="M450.9101,997.3291 C459.9781,1014.5584 479.6303,1051.8975 492.8397,1076.9954 " fill="none" id="port_80-Web" style="stroke:#222266;stroke-width:1.0;"/><!--MD5=[bd708b78a5eb0c94d73d3e4988739956]
link port_80 to Mobile--><path d="M441.0899,997.3291 C432.0219,1014.5584 412.3697,1051.8975 399.1603,1076.9954 " fill="none" id="port_80-Mobile" style="stroke:#222266;stroke-width:1.0;"/><!--MD5=[fddd2f744a01b72d07d053afcf8f7d35]
link Web to Client1--><path d="M506,1127.0952 C506,1144.1196 506,1167.0121 506,1186.6386 " fill="none" id="Web-Client1" style="stroke:#222266;stroke-width:1.0;"/><!--MD5=[7264fd1a748e49842f8d74c905e11e98]
link Mobile to Client2--><path d="M386,1127.0952 C386,1144.1196 386,1167.0121 386,1186.6386 " fill="none" id="Mobile-Client2" style="stroke:#222266;stroke-width:1.0;"/><!--MD5=[a4d203edbf73d4ff4c6a8cb03b5c7a42]
@startuml
skinparam component {
    FontColor          black
    AttributeFontColor black
    FontSize           17
    AttributeFontSize  15
    AttributeFontname  Droid Sans Mono
    BackgroundColor    #6A9EFF
    BorderColor        black
    ArrowColor         #222266
}

skinparam database {
    FontColor          black
    AttributeFontColor black
    FontSize           17
    AttributeFontSize  15
    AttributeFontname  Droid Sans Mono
    BackgroundColor    #6A9E82
    BorderColor        black
    ArrowColor         #222266
}

skinparam actor {
    BackgroundColor    #6A44ff
    BorderColor        black
    ArrowColor         #222266
}

skinparam node {
    FontColor          black
    AttributeFontColor black
    FontSize           17
    AttributeFontSize  15
    AttributeFontname  Droid Sans Mono
    BackgroundColor    #FFA1F8
    BorderColor        black
    ArrowColor         #222266
}

node "VPN"{
    database Elasticsearch
    database Vendor_DB
    component Logstash

    component Kibana
    component Admin_panel
    component Vendor_DB_API_Service
    component CV_HTTP_service
    component Nginx
    component CRM

    interface port_8000
    interface port_8001
    interface port_8002
    interface port_5432
    interface port_5601
    interface port_9200
    interface port_udp_5044

    actor Manager
    actor DevOps

    Admin_panel -up- port_5432
    Admin_panel -down- port_8000

    Elasticsearch -down- port_9200
    Logstash -down- port_udp_5044
    Logstash -up- port_9200

    Vendor_DB_API_Service -up- port_5432
    Vendor_DB_API_Service -up-> port_udp_5044
    Vendor_DB_API_Service -down- port_8001
    port_8001 -down- Nginx

    CV_HTTP_service -up-> port_udp_5044
    CV_HTTP_service -down- port_8002
    port_8002 -down- Nginx

    CRM -left-> port_udp_5044

    Elasticsearch -right- Kibana

    Kibana -right- port_5601

    DevOps -left- port_5601

    Manager -up- port_8000

    Vendor_DB -down- port_5432
}

interface port_80
port_80 -up- - Nginx


node "Front"{
    [Web] -up- port_80
    [Mobile] -up- port_80
}

actor Client1
actor Client2

Client1 -up- Web
Client2 -up- Mobile
@enduml

PlantUML version 1.2021.15(Tue Nov 30 19:45:34 MSK 2021)
(GPL source distribution)
Java Runtime: OpenJDK Runtime Environment
JVM: OpenJDK 64-Bit Server VM
Default Encoding: UTF-8
Language: ru
Country: RU
--></g></svg>