<svg xmlns="http://www.w3.org/2000/svg" xmlns:xlink="http://www.w3.org/1999/xlink" width="622.8" height="586.2" contentScriptType="application/ecmascript" contentStyleType="text/css" style="width:622px;height:586px;background:#fff" preserveAspectRatio="none" version="1.1" viewBox="0 0 622 586" zoomAndPan="magnify"><defs><filter id="flv4y4vm9ogs8" width="300%" height="300%" x="-1" y="-1"><feGaussianBlur result="blurOut" stdDeviation="1.2"/><feColorMatrix in="blurOut" result="blurOut2" type="matrix" values="0 0 0 0 0 0 0 0 0 0 0 0 0 0 0 0 0 0 .4 0"/><feOffset dx="2.4" dy="2.4" in="blurOut2" result="blurOut3"/><feBlend in="SourceGraphic" in2="blurOut3" mode="normal"/></filter></defs><g><polygon fill="#FFA1F8" points="9.6 9.6 15.6 3.6 612.6 3.6 612.6 360 606.6 366 9.6 366 9.6 9.6" filter="url(#flv4y4vm9ogs8)" style="stroke:#000;stroke-width:.8999999999999999"/><line style="stroke:#000;stroke-width:.8999999999999999" x1="606.6" x2="612.6" y1="9.6" y2="3.6"/><line style="stroke:#000;stroke-width:.8999999999999999" x1="9.6" x2="606.6" y1="9.6" y2="9.6"/><line style="stroke:#000;stroke-width:.8999999999999999" x1="606.6" x2="606.6" y1="9.6" y2="366"/><text x="298.2" y="21.261" fill="#000" font-family="sans-serif" font-size="10.2" font-weight="bold" lengthAdjust="spacing" textLength="21">VPN</text><polygon fill="#FFA1F8" points="198 452.4 204 446.4 331.2 446.4 331.2 496.8 325.2 502.8 198 502.8 198 452.4" filter="url(#flv4y4vm9ogs8)" style="stroke:#000;stroke-width:.8999999999999999"/><line style="stroke:#000;stroke-width:.8999999999999999" x1="325.2" x2="331.2" y1="452.4" y2="446.4"/><line style="stroke:#000;stroke-width:.8999999999999999" x1="198" x2="325.2" y1="452.4" y2="452.4"/><line style="stroke:#000;stroke-width:.8999999999999999" x1="325.2" x2="325.2" y1="452.4" y2="502.8"/><text x="248.1" y="464.061" fill="#000" font-family="sans-serif" font-size="10.2" font-weight="bold" lengthAdjust="spacing" textLength="28.2">Front</text><path fill="#6A9E82" d="M327,40.8 C327,34.8 364.8,34.8 364.8,34.8 C364.8,34.8 402.6,34.8 402.6,40.8 L402.6,58.2129 C402.6,64.2129 364.8,64.2129 364.8,64.2129 C364.8,64.2129 327,64.2129 327,58.2129 L327,40.8" filter="url(#flv4y4vm9ogs8)" style="stroke:#000;stroke-width:.8999999999999999"/><path fill="none" d="M327,40.8 C327,46.8 364.8,46.8 364.8,46.8 C364.8,46.8 402.6,46.8 402.6,40.8" style="stroke:#000;stroke-width:.8999999999999999"/><text x="333" y="59.061" fill="#000" font-family="sans-serif" font-size="10.2" lengthAdjust="spacing" textLength="63.6">Elasticsearch</text><path fill="#6A9E82" d="M29.7,116.1 C29.7,110.1 63,110.1 63,110.1 C63,110.1 96.3,110.1 96.3,116.1 L96.3,133.5129 C96.3,139.5129 63,139.5129 63,139.5129 C63,139.5129 29.7,139.5129 29.7,133.5129 L29.7,116.1" filter="url(#flv4y4vm9ogs8)" style="stroke:#000;stroke-width:.8999999999999999"/><path fill="none" d="M29.7,116.1 C29.7,122.1 63,122.1 63,122.1 C63,122.1 96.3,122.1 96.3,116.1" style="stroke:#000;stroke-width:.8999999999999999"/><text x="35.7" y="134.361" fill="#000" font-family="sans-serif" font-size="10.2" lengthAdjust="spacing" textLength="54.6">Vendor_DB</text><path fill="#6A9E82" d="M468.6,250.5 C468.6,244.5 507.6,244.5 507.6,244.5 C507.6,244.5 546.6,244.5 546.6,250.5 L546.6,267.9129 C546.6,273.9129 507.6,273.9129 507.6,273.9129 C507.6,273.9129 468.6,273.9129 468.6,267.9129 L468.6,250.5" filter="url(#flv4y4vm9ogs8)" style="stroke:#000;stroke-width:.8999999999999999"/><path fill="none" d="M468.6,250.5 C468.6,256.5 507.6,256.5 507.6,256.5 C507.6,256.5 546.6,256.5 546.6,250.5" style="stroke:#000;stroke-width:.8999999999999999"/><text x="474.6" y="268.761" fill="#000" font-family="sans-serif" font-size="10.2" lengthAdjust="spacing" textLength="66">User_info_DB</text><rect style="stroke:#000;stroke-width:.8999999999999999" width="80.4" height="30.013" x="121.8" y="109.8" fill="#6A9EFF" filter="url(#flv4y4vm9ogs8)"/><rect style="stroke:#000;stroke-width:.8999999999999999" width="9" height="6" x="190.2" y="112.8" fill="#6A9EFF"/><rect style="stroke:#000;stroke-width:.8999999999999999" width="2.4" height="1.2" x="189" y="114" fill="#6A9EFF"/><rect style="stroke:#000;stroke-width:.8999999999999999" width="2.4" height="1.2" x="189" y="116.4" fill="#6A9EFF"/><text x="130.8" y="131.661" fill="#000" font-family="sans-serif" font-size="10.2" lengthAdjust="spacing" textLength="56.4">Logstash_1</text><rect style="stroke:#000;stroke-width:.8999999999999999" width="80.4" height="30.013" x="223.2" y="109.8" fill="#6A9EFF" filter="url(#flv4y4vm9ogs8)"/><rect style="stroke:#000;stroke-width:.8999999999999999" width="9" height="6" x="291.6" y="112.8" fill="#6A9EFF"/><rect style="stroke:#000;stroke-width:.8999999999999999" width="2.4" height="1.2" x="290.4" y="114" fill="#6A9EFF"/><rect style="stroke:#000;stroke-width:.8999999999999999" width="2.4" height="1.2" x="290.4" y="116.4" fill="#6A9EFF"/><text x="232.2" y="131.661" fill="#000" font-family="sans-serif" font-size="10.2" lengthAdjust="spacing" textLength="56.4">Logstash_2</text><rect style="stroke:#000;stroke-width:.8999999999999999" width="80.4" height="30.013" x="426" y="109.8" fill="#6A9EFF" filter="url(#flv4y4vm9ogs8)"/><rect style="stroke:#000;stroke-width:.8999999999999999" width="9" height="6" x="494.4" y="112.8" fill="#6A9EFF"/><rect style="stroke:#000;stroke-width:.8999999999999999" width="2.4" height="1.2" x="493.2" y="114" fill="#6A9EFF"/><rect style="stroke:#000;stroke-width:.8999999999999999" width="2.4" height="1.2" x="493.2" y="116.4" fill="#6A9EFF"/><text x="435" y="131.661" fill="#000" font-family="sans-serif" font-size="10.2" lengthAdjust="spacing" textLength="56.4">Logstash_3</text><rect style="stroke:#000;stroke-width:.8999999999999999" width="80.4" height="30.013" x="527.4" y="109.8" fill="#6A9EFF" filter="url(#flv4y4vm9ogs8)"/><rect style="stroke:#000;stroke-width:.8999999999999999" width="9" height="6" x="595.8" y="112.8" fill="#6A9EFF"/><rect style="stroke:#000;stroke-width:.8999999999999999" width="2.4" height="1.2" x="594.6" y="114" fill="#6A9EFF"/><rect style="stroke:#000;stroke-width:.8999999999999999" width="2.4" height="1.2" x="594.6" y="116.4" fill="#6A9EFF"/><text x="536.4" y="131.661" fill="#000" font-family="sans-serif" font-size="10.2" lengthAdjust="spacing" textLength="56.4">Logstash_4</text><rect style="stroke:#000;stroke-width:.8999999999999999" width="80.4" height="30.013" x="324.6" y="109.8" fill="#6A9EFF" filter="url(#flv4y4vm9ogs8)"/><rect style="stroke:#000;stroke-width:.8999999999999999" width="9" height="6" x="393" y="112.8" fill="#6A9EFF"/><rect style="stroke:#000;stroke-width:.8999999999999999" width="2.4" height="1.2" x="391.8" y="114" fill="#6A9EFF"/><rect style="stroke:#000;stroke-width:.8999999999999999" width="2.4" height="1.2" x="391.8" y="116.4" fill="#6A9EFF"/><text x="333.6" y="131.661" fill="#000" font-family="sans-serif" font-size="10.2" lengthAdjust="spacing" textLength="56.4">Logstash_5</text><rect style="stroke:#000;stroke-width:.8999999999999999" width="57.6" height="30.013" x="423.6" y="34.5" fill="#6A9EFF" filter="url(#flv4y4vm9ogs8)"/><rect style="stroke:#000;stroke-width:.8999999999999999" width="9" height="6" x="469.2" y="37.5" fill="#6A9EFF"/><rect style="stroke:#000;stroke-width:.8999999999999999" width="2.4" height="1.2" x="468" y="38.7" fill="#6A9EFF"/><rect style="stroke:#000;stroke-width:.8999999999999999" width="2.4" height="1.2" x="468" y="41.1" fill="#6A9EFF"/><text x="432.6" y="56.361" fill="#000" font-family="sans-serif" font-size="10.2" lengthAdjust="spacing" textLength="33.6">Kibana</text><rect style="stroke:#000;stroke-width:.8999999999999999" width="89.4" height="30.013" x="14.7" y="175.8" fill="#6A9EFF" filter="url(#flv4y4vm9ogs8)"/><rect style="stroke:#000;stroke-width:.8999999999999999" width="9" height="6" x="92.1" y="178.8" fill="#6A9EFF"/><rect style="stroke:#000;stroke-width:.8999999999999999" width="2.4" height="1.2" x="90.9" y="180" fill="#6A9EFF"/><rect style="stroke:#000;stroke-width:.8999999999999999" width="2.4" height="1.2" x="90.9" y="182.4" fill="#6A9EFF"/><text x="23.7" y="197.661" fill="#000" font-family="sans-serif" font-size="10.2" lengthAdjust="spacing" textLength="65.4">Admin_panel</text><rect style="stroke:#000;stroke-width:.8999999999999999" width="139.2" height="30.013" x="125.4" y="175.8" fill="#6A9EFF" filter="url(#flv4y4vm9ogs8)"/><rect style="stroke:#000;stroke-width:.8999999999999999" width="9" height="6" x="252.6" y="178.8" fill="#6A9EFF"/><rect style="stroke:#000;stroke-width:.8999999999999999" width="2.4" height="1.2" x="251.4" y="180" fill="#6A9EFF"/><rect style="stroke:#000;stroke-width:.8999999999999999" width="2.4" height="1.2" x="251.4" y="182.4" fill="#6A9EFF"/><text x="134.4" y="197.661" fill="#000" font-family="sans-serif" font-size="10.2" lengthAdjust="spacing" textLength="115.2">Vendor_DB_API_Service</text><rect style="stroke:#000;stroke-width:.8999999999999999" width="108.6" height="30.013" x="285.9" y="175.8" fill="#6A9EFF" filter="url(#flv4y4vm9ogs8)"/><rect style="stroke:#000;stroke-width:.8999999999999999" width="9" height="6" x="382.5" y="178.8" fill="#6A9EFF"/><rect style="stroke:#000;stroke-width:.8999999999999999" width="2.4" height="1.2" x="381.3" y="180" fill="#6A9EFF"/><rect style="stroke:#000;stroke-width:.8999999999999999" width="2.4" height="1.2" x="381.3" y="182.4" fill="#6A9EFF"/><text x="294.9" y="197.661" fill="#000" font-family="sans-serif" font-size="10.2" lengthAdjust="spacing" textLength="84.6">CV_HTTP_service</text><rect style="stroke:#000;stroke-width:.8999999999999999" width="54" height="30.013" x="240.6" y="244.2" fill="#6A9EFF" filter="url(#flv4y4vm9ogs8)"/><rect style="stroke:#000;stroke-width:.8999999999999999" width="9" height="6" x="282.6" y="247.2" fill="#6A9EFF"/><rect style="stroke:#000;stroke-width:.8999999999999999" width="2.4" height="1.2" x="281.4" y="248.4" fill="#6A9EFF"/><rect style="stroke:#000;stroke-width:.8999999999999999" width="2.4" height="1.2" x="281.4" y="250.8" fill="#6A9EFF"/><text x="249.6" y="266.061" fill="#000" font-family="sans-serif" font-size="10.2" lengthAdjust="spacing" textLength="30">Nginx</text><rect style="stroke:#000;stroke-width:.8999999999999999" width="48" height="30.013" x="483.6" y="175.8" fill="#6A9EFF" filter="url(#flv4y4vm9ogs8)"/><rect style="stroke:#000;stroke-width:.8999999999999999" width="9" height="6" x="519.6" y="178.8" fill="#6A9EFF"/><rect style="stroke:#000;stroke-width:.8999999999999999" width="2.4" height="1.2" x="518.4" y="180" fill="#6A9EFF"/><rect style="stroke:#000;stroke-width:.8999999999999999" width="2.4" height="1.2" x="518.4" y="182.4" fill="#6A9EFF"/><text x="492.6" y="197.661" fill="#000" font-family="sans-serif" font-size="10.2" lengthAdjust="spacing" textLength="24">Auth</text><rect style="stroke:#000;stroke-width:.8999999999999999" width="55.2" height="30.013" x="552.6" y="175.8" fill="#6A9EFF" filter="url(#flv4y4vm9ogs8)"/><rect style="stroke:#000;stroke-width:.8999999999999999" width="9" height="6" x="595.8" y="178.8" fill="#6A9EFF"/><rect style="stroke:#000;stroke-width:.8999999999999999" width="2.4" height="1.2" x="594.6" y="180" fill="#6A9EFF"/><rect style="stroke:#000;stroke-width:.8999999999999999" width="2.4" height="1.2" x="594.6" y="182.4" fill="#6A9EFF"/><text x="561.6" y="197.661" fill="#000" font-family="sans-serif" font-size="10.2" lengthAdjust="spacing" textLength="31.2">Billing</text><rect style="stroke:#000;stroke-width:.8999999999999999" width="46.8" height="30.013" x="415.8" y="175.8" fill="#6A9EFF" filter="url(#flv4y4vm9ogs8)"/><rect style="stroke:#000;stroke-width:.8999999999999999" width="9" height="6" x="450.6" y="178.8" fill="#6A9EFF"/><rect style="stroke:#000;stroke-width:.8999999999999999" width="2.4" height="1.2" x="449.4" y="180" fill="#6A9EFF"/><rect style="stroke:#000;stroke-width:.8999999999999999" width="2.4" height="1.2" x="449.4" y="182.4" fill="#6A9EFF"/><text x="424.8" y="197.661" fill="#000" font-family="sans-serif" font-size="10.2" lengthAdjust="spacing" textLength="22.8">CRM</text><ellipse cx="59.4" cy="259.2" fill="#FEFECE" filter="url(#flv4y4vm9ogs8)" rx="4.8" ry="4.8" style="stroke:#a80036;stroke-width:.8999999999999999"/><text x="37.8" y="277.521" fill="#000" font-family="sans-serif" font-size="8.4" lengthAdjust="spacing" textLength="43.2">port_8000</text><ellipse cx="507.6" cy="49.5" fill="#FEFECE" filter="url(#flv4y4vm9ogs8)" rx="4.8" ry="4.8" style="stroke:#a80036;stroke-width:.8999999999999999"/><text x="486" y="67.821" fill="#000" font-family="sans-serif" font-size="8.4" lengthAdjust="spacing" textLength="43.2">port_5601</text><ellipse cx="59.4" cy="318.3" fill="#6A44FF" filter="url(#flv4y4vm9ogs8)" rx="4.8" ry="4.8" style="stroke:#000;stroke-width:.8999999999999999"/><path fill="none" d="M59.4,323.1 L59.4,339.3 M51.6,327.9 L67.2,327.9 M59.4,339.3 L51.6,348.3 M59.4,339.3 L67.2,348.3" filter="url(#flv4y4vm9ogs8)" style="stroke:#000;stroke-width:.8999999999999999"/><text x="41.4" y="359.721" fill="#000" font-family="sans-serif" font-size="8.4" lengthAdjust="spacing" textLength="36">Manager</text><ellipse cx="549.6" cy="30.9" fill="#6A44FF" filter="url(#flv4y4vm9ogs8)" rx="4.8" ry="4.8" style="stroke:#000;stroke-width:.8999999999999999"/><path fill="none" d="M549.6,35.7 L549.6,51.9 M541.8,40.5 L557.4,40.5 M549.6,51.9 L541.8,60.9 M549.6,51.9 L557.4,60.9" filter="url(#flv4y4vm9ogs8)" style="stroke:#000;stroke-width:.8999999999999999"/><text x="534" y="72.321" fill="#000" font-family="sans-serif" font-size="8.4" lengthAdjust="spacing" textLength="31.2">DevOps</text><rect style="stroke:#000;stroke-width:.8999999999999999" width="45" height="30.013" x="281.1" y="468" fill="#6A9EFF" filter="url(#flv4y4vm9ogs8)"/><rect style="stroke:#000;stroke-width:.8999999999999999" width="9" height="6" x="314.1" y="471" fill="#6A9EFF"/><rect style="stroke:#000;stroke-width:.8999999999999999" width="2.4" height="1.2" x="312.9" y="472.2" fill="#6A9EFF"/><rect style="stroke:#000;stroke-width:.8999999999999999" width="2.4" height="1.2" x="312.9" y="474.6" fill="#6A9EFF"/><text x="290.1" y="489.861" fill="#000" font-family="sans-serif" font-size="10.2" lengthAdjust="spacing" textLength="21">Web</text><rect style="stroke:#000;stroke-width:.8999999999999999" width="57" height="30.013" x="203.1" y="468" fill="#6A9EFF" filter="url(#flv4y4vm9ogs8)"/><rect style="stroke:#000;stroke-width:.8999999999999999" width="9" height="6" x="248.1" y="471" fill="#6A9EFF"/><rect style="stroke:#000;stroke-width:.8999999999999999" width="2.4" height="1.2" x="246.9" y="472.2" fill="#6A9EFF"/><rect style="stroke:#000;stroke-width:.8999999999999999" width="2.4" height="1.2" x="246.9" y="474.6" fill="#6A9EFF"/><text x="212.1" y="489.861" fill="#000" font-family="sans-serif" font-size="10.2" lengthAdjust="spacing" textLength="33">Mobile</text><ellipse cx="267.6" cy="414.6" fill="#FEFECE" filter="url(#flv4y4vm9ogs8)" rx="4.8" ry="4.8" style="stroke:#a80036;stroke-width:.8999999999999999"/><text x="251.4" y="432.921" fill="#000" font-family="sans-serif" font-size="8.4" lengthAdjust="spacing" textLength="32.4">port_80</text><ellipse cx="303.6" cy="539.7" fill="#6A44FF" filter="url(#flv4y4vm9ogs8)" rx="4.8" ry="4.8" style="stroke:#000;stroke-width:.8999999999999999"/><path fill="none" d="M303.6,544.5 L303.6,560.7 M295.8,549.3 L311.4,549.3 M303.6,560.7 L295.8,569.7 M303.6,560.7 L311.4,569.7" filter="url(#flv4y4vm9ogs8)" style="stroke:#000;stroke-width:.8999999999999999"/><text x="288.9" y="581.121" fill="#000" font-family="sans-serif" font-size="8.4" lengthAdjust="spacing" textLength="29.4">Client1</text><ellipse cx="231.6" cy="539.7" fill="#6A44FF" filter="url(#flv4y4vm9ogs8)" rx="4.8" ry="4.8" style="stroke:#000;stroke-width:.8999999999999999"/><path fill="none" d="M231.6,544.5 L231.6,560.7 M223.8,549.3 L239.4,549.3 M231.6,560.7 L223.8,569.7 M231.6,560.7 L239.4,569.7" filter="url(#flv4y4vm9ogs8)" style="stroke:#000;stroke-width:.8999999999999999"/><text x="216.9" y="581.121" fill="#000" font-family="sans-serif" font-size="8.4" lengthAdjust="spacing" textLength="29.4">Client2</text><path id="Vendor_DB-Admin_panel" fill="none" d="M62.1921,139.6117 C61.6075,150.3293 60.8198,164.7693 60.2302,175.5799" style="stroke:#226;stroke-width:.6"/><path id="Admin_panel-port_8000" fill="none" d="M59.4,205.8107 C59.4,220.9117 59.4,243.3926 59.4,253.6894" style="stroke:#226;stroke-width:.6"/><path id="Vendor_DB-Vendor_DB_API_Service" fill="none" d="M92.4591,139.5295 C114.0383,150.3191 143.2277,164.9138 164.9453,175.7726" style="stroke:#226;stroke-width:.6"/><path id="Vendor_DB_API_Service-Nginx" fill="none" d="M210.9324,205.8107 C222.9536,217.1364 239.3809,232.6134 251.4539,243.988" style="stroke:#226;stroke-width:.6"/><path id="Logstash_1-backto-Vendor_DB_API_Service" fill="none" d="M170.992,142.7839 C176.1558,153.1116 182.5666,165.9332 187.4644,175.7287" style="stroke:#226;stroke-width:.6"/><polygon fill="#226" points="169.571 139.942 169.839 145.845 170.912 142.625 174.132 143.698 169.571 139.942" style="stroke:#226;stroke-width:.6"/><path id="CV_HTTP_service-Nginx" fill="none" d="M324.2676,205.8107 C312.2464,217.1364 295.8191,232.6134 283.7461,243.988" style="stroke:#226;stroke-width:.6"/><path id="CV_HTTP_service-Auth" fill="none" d="M364.8796,175.7034 C389.8264,162.4148 429.3748,146.7655 462.9,157.8 C473.8034,161.3888 484.2289,168.7717 492.2647,175.646" style="stroke:#226;stroke-width:.6"/><path id="Logstash_2-backto-CV_HTTP_service" fill="none" d="M283.4081,141.9945 C295.577,152.4521 310.9719,165.6821 322.6625,175.7287" style="stroke:#226;stroke-width:.6"/><polygon fill="#226" points="281.019 139.942 283.551 145.281 283.295 141.897 286.679 141.641 281.019 139.942" style="stroke:#226;stroke-width:.6"/><path id="Auth-User_info_DB" fill="none" d="M507.6,205.8107 C507.6,217.2937 507.6,233.0441 507.6,244.4595" style="stroke:#226;stroke-width:.6"/><path id="Auth-Billing" fill="none" d="M531.7055,190.8 C538.6513,190.8 545.5972,190.8 552.5429,190.8" style="stroke:#226;stroke-width:.6"/><path id="CRM-Auth" fill="none" d="M462.7125,190.8 C469.6677,190.8 476.623,190.8 483.5782,190.8" style="stroke:#226;stroke-width:.6"/><path id="Logstash_3-backto-Auth" fill="none" d="M477.3151,142.5197 C483.8215,152.8922 491.9492,165.8495 498.1462,175.7287" style="stroke:#226;stroke-width:.6"/><polygon fill="#226" points="475.698 139.942 476.534 145.792 477.292 142.483 480.601 143.241 475.698 139.942" style="stroke:#226;stroke-width:.6"/><path id="Billing-User_info_DB" fill="none" d="M564.2676,205.8107 C552.0795,217.2937 535.3619,233.0441 523.2456,244.4595" style="stroke:#226;stroke-width:.6"/><path id="Logstash_4-backto-Billing" fill="none" d="M571.084,143.0493 C573.0467,153.3305 575.4687,166.017 577.3228,175.7287" style="stroke:#226;stroke-width:.6"/><polygon fill="#226" points="570.491 139.942 569.146 145.696 571.053 142.888 573.861 144.796 570.491 139.942" style="stroke:#226;stroke-width:.6"/><path id="CRM-User_info_DB" fill="none" d="M454.2107,205.8107 C465.6937,217.2937 481.4441,233.0441 492.8595,244.4595" style="stroke:#226;stroke-width:.6"/><path id="CRM-Billing" fill="none" d="M454.5353,175.646 C462.5711,168.7717 472.9966,161.3888 483.9,157.8 C504.1639,151.1303 511.5175,151.5019 531.9,157.8 C543.4466,161.3679 554.6951,168.7494 563.4277,175.6281" style="stroke:#226;stroke-width:.6"/><path id="Logstash_5-backto-CRM" fill="none" d="M384.1829,141.9945 C395.9714,152.4521 410.8853,165.6821 422.2106,175.7287" style="stroke:#226;stroke-width:.6"/><polygon fill="#226" points="381.869 139.942 384.316 145.321 384.113 141.933 387.501 141.73 381.869 139.942" style="stroke:#226;stroke-width:.6"/><path id="Elasticsearch-backto-Logstash_1" fill="none" d="M323.9439,64.6699 C288.5333,77.818 237.581,96.7366 202.3265,109.8267" style="stroke:#226;stroke-width:.6"/><polygon fill="#226" points="326.893 63.575 320.995 63.205 324.08 64.619 322.666 67.705 326.893 63.575" style="stroke:#226;stroke-width:.6"/><path id="Elasticsearch-backto-Logstash_2" fill="none" d="M342.2322,66.2589 C324.7212,79.2626 300.659,97.1313 283.7389,109.6963" style="stroke:#226;stroke-width:.6"/><polygon fill="#226" points="344.767 64.377 339 65.67 342.358 66.165 341.862 69.523 344.767 64.377" style="stroke:#226;stroke-width:.6"/><path id="Elasticsearch-backto-Logstash_3" fill="none" d="M387.3678,66.2589 C404.8788,79.2626 428.941,97.1313 445.8611,109.6963" style="stroke:#226;stroke-width:.6"/><polygon fill="#226" points="384.833 64.377 387.738 69.523 387.242 66.165 390.6 65.67 384.833 64.377" style="stroke:#226;stroke-width:.6"/><path id="Elasticsearch-backto-Logstash_4" fill="none" d="M395.2088,65.5422 C401.1695,68.4474 407.4264,71.3338 413.4,73.8 C434.1854,82.3812 488.9288,100.067 527.2466,112.181" style="stroke:#226;stroke-width:.6"/><polygon fill="#226" points="392.493 64.207 396.281 68.743 395.185 65.531 398.398 64.435 392.493 64.207" style="stroke:#226;stroke-width:.6"/><path id="Elasticsearch-backto-Logstash_5" fill="none" d="M364.8,67.3899 C364.8,80.2835 364.8,97.4918 364.8,109.6963" style="stroke:#226;stroke-width:.6"/><polygon fill="#226" points="364.8 64.377 362.4 69.777 364.8 67.377 367.2 69.777 364.8 64.377" style="stroke:#226;stroke-width:.6"/><path id="Elasticsearch-Kibana" fill="none" d="M402.6117,49.5 C409.5484,49.5 416.485,49.5 423.4217,49.5" style="stroke:#226;stroke-width:.6"/><path id="Kibana-port_5601" fill="none" d="M481.2938,49.5 C488.2129,49.5 495.1319,49.5 502.051,49.5" style="stroke:#226;stroke-width:.6"/><path id="port_5601-DevOps" fill="none" d="M513.014,49.5 C519.9692,49.5 526.9243,49.5 533.8795,49.5" style="stroke:#226;stroke-width:.6"/><path id="port_8000-Manager" fill="none" d="M59.4,264.788 C59.4,274.6355 59.4,295.6282 59.4,312.4369" style="stroke:#226;stroke-width:.6"/><path id="Nginx-port_80" fill="none" d="M267.6,274.3834 C267.6,307.9872 267.6,387.388 267.6,409.0549" style="stroke:#226;stroke-width:.6"/><path id="port_80-Web" fill="none" d="M270.5461,420.1975 C275.9869,430.535 287.7782,452.9385 295.7038,467.9972" style="stroke:#226;stroke-width:.6"/><path id="port_80-Mobile" fill="none" d="M264.6539,420.1975 C259.2131,430.535 247.4218,452.9385 239.4962,467.9972" style="stroke:#226;stroke-width:.6"/><path id="Web-Client1" fill="none" d="M303.6,498.0571 C303.6,508.2718 303.6,522.0073 303.6,533.7832" style="stroke:#226;stroke-width:.6"/><path id="Mobile-Client2" fill="none" d="M231.6,498.0571 C231.6,508.2718 231.6,522.0073 231.6,533.7832" style="stroke:#226;stroke-width:.6"/></g></svg>
