<?xml version="1.0" encoding="UTF-8" standalone="no"?><svg xmlns="http://www.w3.org/2000/svg" xmlns:xlink="http://www.w3.org/1999/xlink" contentScriptType="application/ecmascript" contentStyleType="text/css" height="586.2px" preserveAspectRatio="none" style="width:622px;height:586px;background:#FFFFFF;" version="1.1" viewBox="0 0 622 586" width="622.8px" zoomAndPan="magnify"><defs><filter height="300%" id="flv4y4vm9ogs8" width="300%" x="-1" y="-1"><feGaussianBlur result="blurOut" stdDeviation="1.2"/><feColorMatrix in="blurOut" result="blurOut2" type="matrix" values="0 0 0 0 0 0 0 0 0 0 0 0 0 0 0 0 0 0 .4 0"/><feOffset dx="2.4" dy="2.4" in="blurOut2" result="blurOut3"/><feBlend in="SourceGraphic" in2="blurOut3" mode="normal"/></filter></defs><g><!--MD5=[755bfa3dd29571ae64598e3c7698531d]
cluster VPN--><polygon fill="#FFA1F8" filter="url(#flv4y4vm9ogs8)" points="9.6,9.6,15.6,3.6,612.6,3.6,612.6,360,606.6,366,9.6,366,9.6,9.6" style="stroke:#000000;stroke-width:0.8999999999999999;"/><line style="stroke:#000000;stroke-width:0.8999999999999999;" x1="606.6" x2="612.6" y1="9.6" y2="3.6"/><line style="stroke:#000000;stroke-width:0.8999999999999999;" x1="9.6" x2="606.6" y1="9.6" y2="9.6"/><line style="stroke:#000000;stroke-width:0.8999999999999999;" x1="606.6" x2="606.6" y1="9.6" y2="366"/><text fill="#000000" font-family="sans-serif" font-size="10.2" font-weight="bold" lengthAdjust="spacing" textLength="21" x="298.2" y="21.2613">VPN</text><!--MD5=[693167bafc98937ea57d8098595f952f]
cluster Front--><polygon fill="#FFA1F8" filter="url(#flv4y4vm9ogs8)" points="198,452.4,204,446.4,331.2,446.4,331.2,496.8,325.2,502.8,198,502.8,198,452.4" style="stroke:#000000;stroke-width:0.8999999999999999;"/><line style="stroke:#000000;stroke-width:0.8999999999999999;" x1="325.2" x2="331.2" y1="452.4" y2="446.4"/><line style="stroke:#000000;stroke-width:0.8999999999999999;" x1="198" x2="325.2" y1="452.4" y2="452.4"/><line style="stroke:#000000;stroke-width:0.8999999999999999;" x1="325.2" x2="325.2" y1="452.4" y2="502.8"/><text fill="#000000" font-family="sans-serif" font-size="10.2" font-weight="bold" lengthAdjust="spacing" textLength="28.2" x="248.1" y="464.0613">Front</text><!--MD5=[783dc9e3eeef317a9da1c323dfb778fc]
entity Elasticsearch--><path d="M327,40.8 C327,34.8 364.8,34.8 364.8,34.8 C364.8,34.8 402.6,34.8 402.6,40.8 L402.6,58.2129 C402.6,64.2129 364.8,64.2129 364.8,64.2129 C364.8,64.2129 327,64.2129 327,58.2129 L327,40.8 " fill="#6A9E82" filter="url(#flv4y4vm9ogs8)" style="stroke:#000000;stroke-width:0.8999999999999999;"/><path d="M327,40.8 C327,46.8 364.8,46.8 364.8,46.8 C364.8,46.8 402.6,46.8 402.6,40.8 " fill="none" style="stroke:#000000;stroke-width:0.8999999999999999;"/><text fill="#000000" font-family="sans-serif" font-size="10.2" lengthAdjust="spacing" textLength="63.6" x="333" y="59.0613">Elasticsearch</text><!--MD5=[8e41bcf8bcfea632130e5450c74a85e7]
entity Vendor_DB--><path d="M29.7,116.1 C29.7,110.1 63,110.1 63,110.1 C63,110.1 96.3,110.1 96.3,116.1 L96.3,133.5129 C96.3,139.5129 63,139.5129 63,139.5129 C63,139.5129 29.7,139.5129 29.7,133.5129 L29.7,116.1 " fill="#6A9E82" filter="url(#flv4y4vm9ogs8)" style="stroke:#000000;stroke-width:0.8999999999999999;"/><path d="M29.7,116.1 C29.7,122.1 63,122.1 63,122.1 C63,122.1 96.3,122.1 96.3,116.1 " fill="none" style="stroke:#000000;stroke-width:0.8999999999999999;"/><text fill="#000000" font-family="sans-serif" font-size="10.2" lengthAdjust="spacing" textLength="54.6" x="35.7" y="134.3613">Vendor_DB</text><!--MD5=[44063067b96b1b27fd0c0cf4b92abe4c]
entity User_info_DB--><path d="M468.6,250.5 C468.6,244.5 507.6,244.5 507.6,244.5 C507.6,244.5 546.6,244.5 546.6,250.5 L546.6,267.9129 C546.6,273.9129 507.6,273.9129 507.6,273.9129 C507.6,273.9129 468.6,273.9129 468.6,267.9129 L468.6,250.5 " fill="#6A9E82" filter="url(#flv4y4vm9ogs8)" style="stroke:#000000;stroke-width:0.8999999999999999;"/><path d="M468.6,250.5 C468.6,256.5 507.6,256.5 507.6,256.5 C507.6,256.5 546.6,256.5 546.6,250.5 " fill="none" style="stroke:#000000;stroke-width:0.8999999999999999;"/><text fill="#000000" font-family="sans-serif" font-size="10.2" lengthAdjust="spacing" textLength="66" x="474.6" y="268.7613">User_info_DB</text><!--MD5=[e27c139a29b950876715ffd45f54c5cc]
entity Logstash_1--><rect fill="#6A9EFF" filter="url(#flv4y4vm9ogs8)" height="30.0129" style="stroke:#000000;stroke-width:0.8999999999999999;" width="80.4" x="121.8" y="109.8"/><rect fill="#6A9EFF" height="6" style="stroke:#000000;stroke-width:0.8999999999999999;" width="9" x="190.2" y="112.8"/><rect fill="#6A9EFF" height="1.2" style="stroke:#000000;stroke-width:0.8999999999999999;" width="2.4" x="189" y="114"/><rect fill="#6A9EFF" height="1.2" style="stroke:#000000;stroke-width:0.8999999999999999;" width="2.4" x="189" y="116.4"/><text fill="#000000" font-family="sans-serif" font-size="10.2" lengthAdjust="spacing" textLength="56.4" x="130.8" y="131.6613">Logstash_1</text><!--MD5=[ae417388a97bf65aa4650ccae683706b]
entity Logstash_2--><rect fill="#6A9EFF" filter="url(#flv4y4vm9ogs8)" height="30.0129" style="stroke:#000000;stroke-width:0.8999999999999999;" width="80.4" x="223.2" y="109.8"/><rect fill="#6A9EFF" height="6" style="stroke:#000000;stroke-width:0.8999999999999999;" width="9" x="291.6" y="112.8"/><rect fill="#6A9EFF" height="1.2" style="stroke:#000000;stroke-width:0.8999999999999999;" width="2.4" x="290.4" y="114"/><rect fill="#6A9EFF" height="1.2" style="stroke:#000000;stroke-width:0.8999999999999999;" width="2.4" x="290.4" y="116.4"/><text fill="#000000" font-family="sans-serif" font-size="10.2" lengthAdjust="spacing" textLength="56.4" x="232.2" y="131.6613">Logstash_2</text><!--MD5=[a8ce53980a2d16b7dc9724a9d02797d6]
entity Logstash_3--><rect fill="#6A9EFF" filter="url(#flv4y4vm9ogs8)" height="30.0129" style="stroke:#000000;stroke-width:0.8999999999999999;" width="80.4" x="426" y="109.8"/><rect fill="#6A9EFF" height="6" style="stroke:#000000;stroke-width:0.8999999999999999;" width="9" x="494.4" y="112.8"/><rect fill="#6A9EFF" height="1.2" style="stroke:#000000;stroke-width:0.8999999999999999;" width="2.4" x="493.2" y="114"/><rect fill="#6A9EFF" height="1.2" style="stroke:#000000;stroke-width:0.8999999999999999;" width="2.4" x="493.2" y="116.4"/><text fill="#000000" font-family="sans-serif" font-size="10.2" lengthAdjust="spacing" textLength="56.4" x="435" y="131.6613">Logstash_3</text><!--MD5=[f1439fdddb1a0237b945992485aad6e2]
entity Logstash_4--><rect fill="#6A9EFF" filter="url(#flv4y4vm9ogs8)" height="30.0129" style="stroke:#000000;stroke-width:0.8999999999999999;" width="80.4" x="527.4" y="109.8"/><rect fill="#6A9EFF" height="6" style="stroke:#000000;stroke-width:0.8999999999999999;" width="9" x="595.8" y="112.8"/><rect fill="#6A9EFF" height="1.2" style="stroke:#000000;stroke-width:0.8999999999999999;" width="2.4" x="594.6" y="114"/><rect fill="#6A9EFF" height="1.2" style="stroke:#000000;stroke-width:0.8999999999999999;" width="2.4" x="594.6" y="116.4"/><text fill="#000000" font-family="sans-serif" font-size="10.2" lengthAdjust="spacing" textLength="56.4" x="536.4" y="131.6613">Logstash_4</text><!--MD5=[c310ee065dafb3ab8f3e0999819ff76c]
entity Logstash_5--><rect fill="#6A9EFF" filter="url(#flv4y4vm9ogs8)" height="30.0129" style="stroke:#000000;stroke-width:0.8999999999999999;" width="80.4" x="324.6" y="109.8"/><rect fill="#6A9EFF" height="6" style="stroke:#000000;stroke-width:0.8999999999999999;" width="9" x="393" y="112.8"/><rect fill="#6A9EFF" height="1.2" style="stroke:#000000;stroke-width:0.8999999999999999;" width="2.4" x="391.8" y="114"/><rect fill="#6A9EFF" height="1.2" style="stroke:#000000;stroke-width:0.8999999999999999;" width="2.4" x="391.8" y="116.4"/><text fill="#000000" font-family="sans-serif" font-size="10.2" lengthAdjust="spacing" textLength="56.4" x="333.6" y="131.6613">Logstash_5</text><!--MD5=[9b8f59e66ae7ec468b34308e0cee7a31]
entity Kibana--><rect fill="#6A9EFF" filter="url(#flv4y4vm9ogs8)" height="30.0129" style="stroke:#000000;stroke-width:0.8999999999999999;" width="57.6" x="423.6" y="34.5"/><rect fill="#6A9EFF" height="6" style="stroke:#000000;stroke-width:0.8999999999999999;" width="9" x="469.2" y="37.5"/><rect fill="#6A9EFF" height="1.2" style="stroke:#000000;stroke-width:0.8999999999999999;" width="2.4" x="468" y="38.7"/><rect fill="#6A9EFF" height="1.2" style="stroke:#000000;stroke-width:0.8999999999999999;" width="2.4" x="468" y="41.1"/><text fill="#000000" font-family="sans-serif" font-size="10.2" lengthAdjust="spacing" textLength="33.6" x="432.6" y="56.3613">Kibana</text><!--MD5=[e290ce1d73df4ab7e7b343154c9678f9]
entity Admin_panel--><rect fill="#6A9EFF" filter="url(#flv4y4vm9ogs8)" height="30.0129" style="stroke:#000000;stroke-width:0.8999999999999999;" width="89.4" x="14.7" y="175.8"/><rect fill="#6A9EFF" height="6" style="stroke:#000000;stroke-width:0.8999999999999999;" width="9" x="92.1" y="178.8"/><rect fill="#6A9EFF" height="1.2" style="stroke:#000000;stroke-width:0.8999999999999999;" width="2.4" x="90.9" y="180"/><rect fill="#6A9EFF" height="1.2" style="stroke:#000000;stroke-width:0.8999999999999999;" width="2.4" x="90.9" y="182.4"/><text fill="#000000" font-family="sans-serif" font-size="10.2" lengthAdjust="spacing" textLength="65.4" x="23.7" y="197.6613">Admin_panel</text><!--MD5=[784d1d874387c9b10bfcbe9124f885e5]
entity Vendor_DB_API_Service--><rect fill="#6A9EFF" filter="url(#flv4y4vm9ogs8)" height="30.0129" style="stroke:#000000;stroke-width:0.8999999999999999;" width="139.2" x="125.4" y="175.8"/><rect fill="#6A9EFF" height="6" style="stroke:#000000;stroke-width:0.8999999999999999;" width="9" x="252.6" y="178.8"/><rect fill="#6A9EFF" height="1.2" style="stroke:#000000;stroke-width:0.8999999999999999;" width="2.4" x="251.4" y="180"/><rect fill="#6A9EFF" height="1.2" style="stroke:#000000;stroke-width:0.8999999999999999;" width="2.4" x="251.4" y="182.4"/><text fill="#000000" font-family="sans-serif" font-size="10.2" lengthAdjust="spacing" textLength="115.2" x="134.4" y="197.6613">Vendor_DB_API_Service</text><!--MD5=[6ac8b63fdd46cc8523881e6d2365f52a]
entity CV_HTTP_service--><rect fill="#6A9EFF" filter="url(#flv4y4vm9ogs8)" height="30.0129" style="stroke:#000000;stroke-width:0.8999999999999999;" width="108.6" x="285.9" y="175.8"/><rect fill="#6A9EFF" height="6" style="stroke:#000000;stroke-width:0.8999999999999999;" width="9" x="382.5" y="178.8"/><rect fill="#6A9EFF" height="1.2" style="stroke:#000000;stroke-width:0.8999999999999999;" width="2.4" x="381.3" y="180"/><rect fill="#6A9EFF" height="1.2" style="stroke:#000000;stroke-width:0.8999999999999999;" width="2.4" x="381.3" y="182.4"/><text fill="#000000" font-family="sans-serif" font-size="10.2" lengthAdjust="spacing" textLength="84.6" x="294.9" y="197.6613">CV_HTTP_service</text><!--MD5=[b7709df717efd9e6df0e9843c5de81db]
entity Nginx--><rect fill="#6A9EFF" filter="url(#flv4y4vm9ogs8)" height="30.0129" style="stroke:#000000;stroke-width:0.8999999999999999;" width="54" x="240.6" y="244.2"/><rect fill="#6A9EFF" height="6" style="stroke:#000000;stroke-width:0.8999999999999999;" width="9" x="282.6" y="247.2"/><rect fill="#6A9EFF" height="1.2" style="stroke:#000000;stroke-width:0.8999999999999999;" width="2.4" x="281.4" y="248.4"/><rect fill="#6A9EFF" height="1.2" style="stroke:#000000;stroke-width:0.8999999999999999;" width="2.4" x="281.4" y="250.8"/><text fill="#000000" font-family="sans-serif" font-size="10.2" lengthAdjust="spacing" textLength="30" x="249.6" y="266.0613">Nginx</text><!--MD5=[39222abbbfd087a4fdab60e627dc976f]
entity Auth--><rect fill="#6A9EFF" filter="url(#flv4y4vm9ogs8)" height="30.0129" style="stroke:#000000;stroke-width:0.8999999999999999;" width="48" x="483.6" y="175.8"/><rect fill="#6A9EFF" height="6" style="stroke:#000000;stroke-width:0.8999999999999999;" width="9" x="519.6" y="178.8"/><rect fill="#6A9EFF" height="1.2" style="stroke:#000000;stroke-width:0.8999999999999999;" width="2.4" x="518.4" y="180"/><rect fill="#6A9EFF" height="1.2" style="stroke:#000000;stroke-width:0.8999999999999999;" width="2.4" x="518.4" y="182.4"/><text fill="#000000" font-family="sans-serif" font-size="10.2" lengthAdjust="spacing" textLength="24" x="492.6" y="197.6613">Auth</text><!--MD5=[8a394f96b0ce110dbdfdee486f17d343]
entity Billing--><rect fill="#6A9EFF" filter="url(#flv4y4vm9ogs8)" height="30.0129" style="stroke:#000000;stroke-width:0.8999999999999999;" width="55.2" x="552.6" y="175.8"/><rect fill="#6A9EFF" height="6" style="stroke:#000000;stroke-width:0.8999999999999999;" width="9" x="595.8" y="178.8"/><rect fill="#6A9EFF" height="1.2" style="stroke:#000000;stroke-width:0.8999999999999999;" width="2.4" x="594.6" y="180"/><rect fill="#6A9EFF" height="1.2" style="stroke:#000000;stroke-width:0.8999999999999999;" width="2.4" x="594.6" y="182.4"/><text fill="#000000" font-family="sans-serif" font-size="10.2" lengthAdjust="spacing" textLength="31.2" x="561.6" y="197.6613">Billing</text><!--MD5=[ff8ff1b9124d8226c243bd0d10adfb7e]
entity CRM--><rect fill="#6A9EFF" filter="url(#flv4y4vm9ogs8)" height="30.0129" style="stroke:#000000;stroke-width:0.8999999999999999;" width="46.8" x="415.8" y="175.8"/><rect fill="#6A9EFF" height="6" style="stroke:#000000;stroke-width:0.8999999999999999;" width="9" x="450.6" y="178.8"/><rect fill="#6A9EFF" height="1.2" style="stroke:#000000;stroke-width:0.8999999999999999;" width="2.4" x="449.4" y="180"/><rect fill="#6A9EFF" height="1.2" style="stroke:#000000;stroke-width:0.8999999999999999;" width="2.4" x="449.4" y="182.4"/><text fill="#000000" font-family="sans-serif" font-size="10.2" lengthAdjust="spacing" textLength="22.8" x="424.8" y="197.6613">CRM</text><!--MD5=[899629aacf9ceed11a0fc7b2ab0e7e58]
entity port_8000--><ellipse cx="59.4" cy="259.2" fill="#FEFECE" filter="url(#flv4y4vm9ogs8)" rx="4.8" ry="4.8" style="stroke:#A80036;stroke-width:0.8999999999999999;"/><text fill="#000000" font-family="sans-serif" font-size="8.4" lengthAdjust="spacing" textLength="43.2" x="37.8" y="277.5211">port_8000</text><!--MD5=[b5bc67689494d1e06a43d3b0ef27a622]
entity port_5601--><ellipse cx="507.6" cy="49.5" fill="#FEFECE" filter="url(#flv4y4vm9ogs8)" rx="4.8" ry="4.8" style="stroke:#A80036;stroke-width:0.8999999999999999;"/><text fill="#000000" font-family="sans-serif" font-size="8.4" lengthAdjust="spacing" textLength="43.2" x="486" y="67.8211">port_5601</text><!--MD5=[327d8b0cc9017ef0d2f4054fa6547e20]
entity Manager--><ellipse cx="59.4" cy="318.3" fill="#6A44FF" filter="url(#flv4y4vm9ogs8)" rx="4.8" ry="4.8" style="stroke:#000000;stroke-width:0.8999999999999999;"/><path d="M59.4,323.1 L59.4,339.3 M51.6,327.9 L67.2,327.9 M59.4,339.3 L51.6,348.3 M59.4,339.3 L67.2,348.3 " fill="none" filter="url(#flv4y4vm9ogs8)" style="stroke:#000000;stroke-width:0.8999999999999999;"/><text fill="#000000" font-family="sans-serif" font-size="8.4" lengthAdjust="spacing" textLength="36" x="41.4" y="359.7211">Manager</text><!--MD5=[9d1330f94e15b99f5c39504305aed57e]
entity DevOps--><ellipse cx="549.6" cy="30.9" fill="#6A44FF" filter="url(#flv4y4vm9ogs8)" rx="4.8" ry="4.8" style="stroke:#000000;stroke-width:0.8999999999999999;"/><path d="M549.6,35.7 L549.6,51.9 M541.8,40.5 L557.4,40.5 M549.6,51.9 L541.8,60.9 M549.6,51.9 L557.4,60.9 " fill="none" filter="url(#flv4y4vm9ogs8)" style="stroke:#000000;stroke-width:0.8999999999999999;"/><text fill="#000000" font-family="sans-serif" font-size="8.4" lengthAdjust="spacing" textLength="31.2" x="534" y="72.3211">DevOps</text><!--MD5=[3193059314a247eafe92785e7a6ac74f]
entity Web--><rect fill="#6A9EFF" filter="url(#flv4y4vm9ogs8)" height="30.0129" style="stroke:#000000;stroke-width:0.8999999999999999;" width="45" x="281.1" y="468"/><rect fill="#6A9EFF" height="6" style="stroke:#000000;stroke-width:0.8999999999999999;" width="9" x="314.1" y="471"/><rect fill="#6A9EFF" height="1.2" style="stroke:#000000;stroke-width:0.8999999999999999;" width="2.4" x="312.9" y="472.2"/><rect fill="#6A9EFF" height="1.2" style="stroke:#000000;stroke-width:0.8999999999999999;" width="2.4" x="312.9" y="474.6"/><text fill="#000000" font-family="sans-serif" font-size="10.2" lengthAdjust="spacing" textLength="21" x="290.1" y="489.8613">Web</text><!--MD5=[196d6eeb2242891742fda3f334b4ab6e]
entity Mobile--><rect fill="#6A9EFF" filter="url(#flv4y4vm9ogs8)" height="30.0129" style="stroke:#000000;stroke-width:0.8999999999999999;" width="57" x="203.1" y="468"/><rect fill="#6A9EFF" height="6" style="stroke:#000000;stroke-width:0.8999999999999999;" width="9" x="248.1" y="471"/><rect fill="#6A9EFF" height="1.2" style="stroke:#000000;stroke-width:0.8999999999999999;" width="2.4" x="246.9" y="472.2"/><rect fill="#6A9EFF" height="1.2" style="stroke:#000000;stroke-width:0.8999999999999999;" width="2.4" x="246.9" y="474.6"/><text fill="#000000" font-family="sans-serif" font-size="10.2" lengthAdjust="spacing" textLength="33" x="212.1" y="489.8613">Mobile</text><!--MD5=[21a53ea847074d58f6a7c93457b0a8b1]
entity port_80--><ellipse cx="267.6" cy="414.6" fill="#FEFECE" filter="url(#flv4y4vm9ogs8)" rx="4.8" ry="4.8" style="stroke:#A80036;stroke-width:0.8999999999999999;"/><text fill="#000000" font-family="sans-serif" font-size="8.4" lengthAdjust="spacing" textLength="32.4" x="251.4" y="432.9211">port_80</text><!--MD5=[261b70d766cf3b488716fdc7774eedb5]
entity Client1--><ellipse cx="303.6" cy="539.7" fill="#6A44FF" filter="url(#flv4y4vm9ogs8)" rx="4.8" ry="4.8" style="stroke:#000000;stroke-width:0.8999999999999999;"/><path d="M303.6,544.5 L303.6,560.7 M295.8,549.3 L311.4,549.3 M303.6,560.7 L295.8,569.7 M303.6,560.7 L311.4,569.7 " fill="none" filter="url(#flv4y4vm9ogs8)" style="stroke:#000000;stroke-width:0.8999999999999999;"/><text fill="#000000" font-family="sans-serif" font-size="8.4" lengthAdjust="spacing" textLength="29.4" x="288.9" y="581.1211">Client1</text><!--MD5=[87b5331bd98359a6a5d777d873059d3a]
entity Client2--><ellipse cx="231.6" cy="539.7" fill="#6A44FF" filter="url(#flv4y4vm9ogs8)" rx="4.8" ry="4.8" style="stroke:#000000;stroke-width:0.8999999999999999;"/><path d="M231.6,544.5 L231.6,560.7 M223.8,549.3 L239.4,549.3 M231.6,560.7 L223.8,569.7 M231.6,560.7 L239.4,569.7 " fill="none" filter="url(#flv4y4vm9ogs8)" style="stroke:#000000;stroke-width:0.8999999999999999;"/><text fill="#000000" font-family="sans-serif" font-size="8.4" lengthAdjust="spacing" textLength="29.4" x="216.9" y="581.1211">Client2</text><!--MD5=[47b3aea9a3eceef9b86302c1426afc11]
link Vendor_DB to Admin_panel--><path d="M62.1921,139.6117 C61.6075,150.3293 60.8198,164.7693 60.2302,175.5799 " fill="none" id="Vendor_DB-Admin_panel" style="stroke:#222266;stroke-width:0.6;"/><!--MD5=[98f343313013d9f46c43147ab1a3ea1f]
link Admin_panel to port_8000--><path d="M59.4,205.8107 C59.4,220.9117 59.4,243.3926 59.4,253.6894 " fill="none" id="Admin_panel-port_8000" style="stroke:#222266;stroke-width:0.6;"/><!--MD5=[40229c67bb8e4cd084a761ef6d4396ff]
link Vendor_DB to Vendor_DB_API_Service--><path d="M92.4591,139.5295 C114.0383,150.3191 143.2277,164.9138 164.9453,175.7726 " fill="none" id="Vendor_DB-Vendor_DB_API_Service" style="stroke:#222266;stroke-width:0.6;"/><!--MD5=[70c96f5827da38856eab621c5e869740]
link Vendor_DB_API_Service to Nginx--><path d="M210.9324,205.8107 C222.9536,217.1364 239.3809,232.6134 251.4539,243.988 " fill="none" id="Vendor_DB_API_Service-Nginx" style="stroke:#222266;stroke-width:0.6;"/><!--MD5=[3f29cc76ce2f348b92a7c7095ffafeef]
reverse link Logstash_1 to Vendor_DB_API_Service--><path d="M170.992,142.7839 C176.1558,153.1116 182.5666,165.9332 187.4644,175.7287 " fill="none" id="Logstash_1-backto-Vendor_DB_API_Service" style="stroke:#222266;stroke-width:0.6;"/><polygon fill="#222266" points="169.5709,139.9417,169.8393,145.8449,170.9125,142.625,174.1325,143.6983,169.5709,139.9417" style="stroke:#222266;stroke-width:0.6;"/><!--MD5=[02c8e2f9a3772d3ce013c75ef22d7e05]
link CV_HTTP_service to Nginx--><path d="M324.2676,205.8107 C312.2464,217.1364 295.8191,232.6134 283.7461,243.988 " fill="none" id="CV_HTTP_service-Nginx" style="stroke:#222266;stroke-width:0.6;"/><!--MD5=[3ffb6051d950ac9a194479cfe40e92fb]
link CV_HTTP_service to Auth--><path d="M364.8796,175.7034 C389.8264,162.4148 429.3748,146.7655 462.9,157.8 C473.8034,161.3888 484.2289,168.7717 492.2647,175.646 " fill="none" id="CV_HTTP_service-Auth" style="stroke:#222266;stroke-width:0.6;"/><!--MD5=[f046459e800004db162faa186bcfb65b]
reverse link Logstash_2 to CV_HTTP_service--><path d="M283.4081,141.9945 C295.577,152.4521 310.9719,165.6821 322.6625,175.7287 " fill="none" id="Logstash_2-backto-CV_HTTP_service" style="stroke:#222266;stroke-width:0.6;"/><polygon fill="#222266" points="281.0195,139.9417,283.5507,145.2815,283.2947,141.897,286.6792,141.641,281.0195,139.9417" style="stroke:#222266;stroke-width:0.6;"/><!--MD5=[693526a33afe6c29205523196d598d5c]
link Auth to User_info_DB--><path d="M507.6,205.8107 C507.6,217.2937 507.6,233.0441 507.6,244.4595 " fill="none" id="Auth-User_info_DB" style="stroke:#222266;stroke-width:0.6;"/><!--MD5=[79f9f445c077c726acdab8b52293068c]
link Auth to Billing--><path d="M531.7055,190.8 C538.6513,190.8 545.5972,190.8 552.5429,190.8 " fill="none" id="Auth-Billing" style="stroke:#222266;stroke-width:0.6;"/><!--MD5=[204bda3b8a4a2fdec83e4b0b7273b4b2]
link CRM to Auth--><path d="M462.7125,190.8 C469.6677,190.8 476.623,190.8 483.5782,190.8 " fill="none" id="CRM-Auth" style="stroke:#222266;stroke-width:0.6;"/><!--MD5=[5dd5bb6f9ba684c85f56e78f7f240cae]
reverse link Logstash_3 to Auth--><path d="M477.3151,142.5197 C483.8215,152.8922 491.9492,165.8495 498.1462,175.7287 " fill="none" id="Logstash_3-backto-Auth" style="stroke:#222266;stroke-width:0.6;"/><polygon fill="#222266" points="475.698,139.9417,476.5343,145.7916,477.2921,142.4831,480.6006,143.2409,475.698,139.9417" style="stroke:#222266;stroke-width:0.6;"/><!--MD5=[aa5d870f1ec666c93f0641dc01990b08]
link Billing to User_info_DB--><path d="M564.2676,205.8107 C552.0795,217.2937 535.3619,233.0441 523.2456,244.4595 " fill="none" id="Billing-User_info_DB" style="stroke:#222266;stroke-width:0.6;"/><!--MD5=[eec7d3515fad022170b044a41f7ec95c]
reverse link Logstash_4 to Billing--><path d="M571.084,143.0493 C573.0467,153.3305 575.4687,166.017 577.3228,175.7287 " fill="none" id="Logstash_4-backto-Billing" style="stroke:#222266;stroke-width:0.6;"/><polygon fill="#222266" points="570.4907,139.9417,569.146,145.696,571.0533,142.8885,573.8608,144.7958,570.4907,139.9417" style="stroke:#222266;stroke-width:0.6;"/><!--MD5=[9458302ac69243df70cc0c9cf02ee230]
link CRM to User_info_DB--><path d="M454.2107,205.8107 C465.6937,217.2937 481.4441,233.0441 492.8595,244.4595 " fill="none" id="CRM-User_info_DB" style="stroke:#222266;stroke-width:0.6;"/><!--MD5=[dbc4a8dc6a068909793a0e49c34a2202]
link CRM to Billing--><path d="M454.5353,175.646 C462.5711,168.7717 472.9966,161.3888 483.9,157.8 C504.1639,151.1303 511.5175,151.5019 531.9,157.8 C543.4466,161.3679 554.6951,168.7494 563.4277,175.6281 " fill="none" id="CRM-Billing" style="stroke:#222266;stroke-width:0.6;"/><!--MD5=[06051aef4a42a4035306f29a9dc94e47]
reverse link Logstash_5 to CRM--><path d="M384.1829,141.9945 C395.9714,152.4521 410.8853,165.6821 422.2106,175.7287 " fill="none" id="Logstash_5-backto-CRM" style="stroke:#222266;stroke-width:0.6;"/><polygon fill="#222266" points="381.8689,139.9417,384.3159,145.3206,384.1131,141.9325,387.5012,141.7298,381.8689,139.9417" style="stroke:#222266;stroke-width:0.6;"/><!--MD5=[1403ee70f07a1ea98686f7a6a2025aae]
reverse link Elasticsearch to Logstash_1--><path d="M323.9439,64.6699 C288.5333,77.818 237.581,96.7366 202.3265,109.8267 " fill="none" id="Elasticsearch-backto-Logstash_1" style="stroke:#222266;stroke-width:0.6;"/><polygon fill="#222266" points="326.8928,63.575,320.9951,63.2048,324.0804,64.6193,322.6659,67.7046,326.8928,63.575" style="stroke:#222266;stroke-width:0.6;"/><!--MD5=[0a719758aa49c2a3973bed2ceaa97ab2]
reverse link Elasticsearch to Logstash_2--><path d="M342.2322,66.2589 C324.7212,79.2626 300.659,97.1313 283.7389,109.6963 " fill="none" id="Elasticsearch-backto-Logstash_2" style="stroke:#222266;stroke-width:0.6;"/><polygon fill="#222266" points="344.7666,64.3769,339.0004,65.6696,342.3581,66.1655,341.8622,69.5232,344.7666,64.3769" style="stroke:#222266;stroke-width:0.6;"/><!--MD5=[a042cbc0ee9e423f7d195d11083103d2]
reverse link Elasticsearch to Logstash_3--><path d="M387.3678,66.2589 C404.8788,79.2626 428.941,97.1313 445.8611,109.6963 " fill="none" id="Elasticsearch-backto-Logstash_3" style="stroke:#222266;stroke-width:0.6;"/><polygon fill="#222266" points="384.8334,64.3769,387.7378,69.5232,387.2419,66.1655,390.5996,65.6696,384.8334,64.3769" style="stroke:#222266;stroke-width:0.6;"/><!--MD5=[73ff873a697c3b4712478949701bb4ec]
reverse link Elasticsearch to Logstash_4--><path d="M395.2088,65.5422 C401.1695,68.4474 407.4264,71.3338 413.4,73.8 C434.1854,82.3812 488.9288,100.067 527.2466,112.181 " fill="none" id="Elasticsearch-backto-Logstash_4" style="stroke:#222266;stroke-width:0.6;"/><polygon fill="#222266" points="392.493,64.2075,396.2807,68.7432,395.1854,65.5307,398.3979,64.4354,392.493,64.2075" style="stroke:#222266;stroke-width:0.6;"/><!--MD5=[3bd0dc66eadcdb03662ba030f6ec1968]
reverse link Elasticsearch to Logstash_5--><path d="M364.8,67.3899 C364.8,80.2835 364.8,97.4918 364.8,109.6963 " fill="none" id="Elasticsearch-backto-Logstash_5" style="stroke:#222266;stroke-width:0.6;"/><polygon fill="#222266" points="364.8,64.3769,362.4,69.7769,364.8,67.3769,367.2,69.7769,364.8,64.3769" style="stroke:#222266;stroke-width:0.6;"/><!--MD5=[048503d3e4d7a2e2168c3c1996ed2c8e]
link Elasticsearch to Kibana--><path d="M402.6117,49.5 C409.5484,49.5 416.485,49.5 423.4217,49.5 " fill="none" id="Elasticsearch-Kibana" style="stroke:#222266;stroke-width:0.6;"/><!--MD5=[fee6d574a89dbefe632f1ff867089a2a]
link Kibana to port_5601--><path d="M481.2938,49.5 C488.2129,49.5 495.1319,49.5 502.051,49.5 " fill="none" id="Kibana-port_5601" style="stroke:#222266;stroke-width:0.6;"/><!--MD5=[f660784e32dbfa90a6dd3a8893df11cf]
link port_5601 to DevOps--><path d="M513.014,49.5 C519.9692,49.5 526.9243,49.5 533.8795,49.5 " fill="none" id="port_5601-DevOps" style="stroke:#222266;stroke-width:0.6;"/><!--MD5=[7f27d2f623760fe5436bce29e1954d0f]
link port_8000 to Manager--><path d="M59.4,264.788 C59.4,274.6355 59.4,295.6282 59.4,312.4369 " fill="none" id="port_8000-Manager" style="stroke:#222266;stroke-width:0.6;"/><!--MD5=[03158dc547cdf27cf6a469d333fc5d4c]
link Nginx to port_80--><path d="M267.6,274.3834 C267.6,307.9872 267.6,387.388 267.6,409.0549 " fill="none" id="Nginx-port_80" style="stroke:#222266;stroke-width:0.6;"/><!--MD5=[d9a6ab16b40e5f0a16f65c71a9f2a7f4]
link port_80 to Web--><path d="M270.5461,420.1975 C275.9869,430.535 287.7782,452.9385 295.7038,467.9972 " fill="none" id="port_80-Web" style="stroke:#222266;stroke-width:0.6;"/><!--MD5=[bd708b78a5eb0c94d73d3e4988739956]
link port_80 to Mobile--><path d="M264.6539,420.1975 C259.2131,430.535 247.4218,452.9385 239.4962,467.9972 " fill="none" id="port_80-Mobile" style="stroke:#222266;stroke-width:0.6;"/><!--MD5=[fddd2f744a01b72d07d053afcf8f7d35]
link Web to Client1--><path d="M303.6,498.0571 C303.6,508.2718 303.6,522.0073 303.6,533.7832 " fill="none" id="Web-Client1" style="stroke:#222266;stroke-width:0.6;"/><!--MD5=[7264fd1a748e49842f8d74c905e11e98]
link Mobile to Client2--><path d="M231.6,498.0571 C231.6,508.2718 231.6,522.0073 231.6,533.7832 " fill="none" id="Mobile-Client2" style="stroke:#222266;stroke-width:0.6;"/><!--MD5=[995bcf4657eac5c9e0619491a46ba843]
@startuml
skinparam component {
    FontColor          black
    AttributeFontColor black
    FontSize           17
    AttributeFontSize  15
    AttributeFontname  Droid Sans Mono
    BackgroundColor    #6A9EFF
    BorderColor        black
    ArrowColor         #222266
}

skinparam database {
    FontColor          black
    AttributeFontColor black
    FontSize           17
    AttributeFontSize  15
    AttributeFontname  Droid Sans Mono
    BackgroundColor    #6A9E82
    BorderColor        black
    ArrowColor         #222266
}

skinparam actor {
    BackgroundColor    #6A44ff
    BorderColor        black
    ArrowColor         #222266
}

skinparam node {
    FontColor          black
    AttributeFontColor black
    FontSize           17
    AttributeFontSize  15
    AttributeFontname  Droid Sans Mono
    BackgroundColor    #FFA1F8
    BorderColor        black
    ArrowColor         #222266
}

node "VPN"{
    database Elasticsearch
    database Vendor_DB
    database User_info_DB

    component Logstash_1
    component Logstash_2
    component Logstash_3
    component Logstash_4
    component Logstash_5

    component Kibana
    component Admin_panel
    component Vendor_DB_API_Service
    component CV_HTTP_service
    component Nginx
    component Auth
    component Billing
    component CRM

    interface port_8000
    interface port_5601

    actor Manager
    actor DevOps

    Admin_panel -up- Vendor_DB
    Admin_panel -down- port_8000

    Vendor_DB_API_Service -up- Vendor_DB
    Vendor_DB_API_Service -down- Nginx
    Vendor_DB_API_Service -up-> Logstash_1

    CV_HTTP_service -down- Nginx
    CV_HTTP_service -right- Auth
    CV_HTTP_service -up-> Logstash_2

    Auth -down- User_info_DB
    Auth -right- Billing
    Auth -left- CRM
    Auth -up-> Logstash_3

    Billing -down- User_info_DB
    Billing -up-> Logstash_4

    CRM -down- User_info_DB
    CRM -right- Billing
    CRM -up-> Logstash_5

    Logstash_1 -up-> Elasticsearch
    Logstash_2 -up-> Elasticsearch
    Logstash_3 -up-> Elasticsearch
    Logstash_4 -up-> Elasticsearch
    Logstash_5 -up-> Elasticsearch

    Elasticsearch -right- Kibana

    Kibana -right- port_5601

    DevOps -left- port_5601

    Manager -up- port_8000
}

interface port_80
port_80 -up- - Nginx


node "Front"{
    [Web] -up- port_80
    [Mobile] -up- port_80
}

actor Client1
actor Client2

Client1 -up- Web
Client2 -up- Mobile
@enduml

PlantUML version 1.2021.11(Sat Oct 02 16:26:11 MSK 2021)
(GPL source distribution)
Java Runtime: OpenJDK Runtime Environment
JVM: OpenJDK 64-Bit Server VM
Default Encoding: UTF-8
Language: ru
Country: RU
--></g></svg>
